<svg xmlns="http://www.w3.org/2000/svg" width="183" height="79" viewBox="0 0 183 79">
    <g fill="#FFF" fill-rule="evenodd">
        <path d="M85.422 30.053c.931 0 1.717-.083 2.358-.25.642-.164 1.18-.381 1.615-.65l.931 3.382c-.415.249-1.082.497-2.003.746-.92.249-2.053.373-3.398.373-1.53 0-2.939-.24-4.222-.715-1.283-.476-2.38-1.154-3.29-2.033-.91-.88-1.62-1.945-2.127-3.197-.507-1.252-.76-2.654-.76-4.206 0-1.511.244-2.892.73-4.143.485-1.252 1.18-2.32 2.08-3.2.9-.878 1.996-1.561 3.29-2.046 1.293-.488 2.747-.73 4.361-.73 1.366 0 2.478.129 3.336.388.86.259 1.537.522 2.035.79l-1.056 3.447a9.043 9.043 0 0 0-1.692-.715 7.14 7.14 0 0 0-2.158-.31c-.828 0-1.603.12-2.328.357a4.897 4.897 0 0 0-1.893 1.134c-.538.517-.962 1.183-1.273 2-.31.819-.465 1.817-.465 2.997 0 1.097.15 2.059.45 2.887.3.828.718 1.516 1.257 2.064a5.124 5.124 0 0 0 1.878 1.226 6.593 6.593 0 0 0 2.344.404M96.485 23.564c0 1.098.129 2.06.388 2.887.258.828.615 1.51 1.07 2.05.456.538.979.94 1.568 1.21.59.269 1.226.404 1.91.404.662 0 1.288-.135 1.877-.404a4.197 4.197 0 0 0 1.537-1.21c.434-.54.776-1.222 1.024-2.05.248-.826.372-1.79.372-2.887 0-1.137-.13-2.125-.388-2.965-.258-.837-.616-1.524-1.07-2.063a4.491 4.491 0 0 0-1.568-1.21 4.545 4.545 0 0 0-1.908-.405c-.664 0-1.29.14-1.878.42-.59.28-1.103.698-1.538 1.258-.434.558-.775 1.252-1.024 2.078-.248.829-.372 1.79-.372 2.887m4.936-10.18c1.407 0 2.71.232 3.91.698a8.828 8.828 0 0 1 3.104 2.002c.869.87 1.547 1.935 2.033 3.197.487 1.263.73 2.69.73 4.284 0 1.552-.253 2.948-.76 4.19-.508 1.242-1.201 2.303-2.08 3.181a8.88 8.88 0 0 1-3.135 2.018c-1.211.465-2.52.7-3.926.7-1.41 0-2.712-.23-3.913-.685A8.781 8.781 0 0 1 94.28 31c-.87-.859-1.547-1.914-2.033-3.166-.487-1.252-.73-2.675-.73-4.269 0-1.552.248-2.954.745-4.205.496-1.252 1.19-2.323 2.08-3.214a9.106 9.106 0 0 1 3.15-2.048c1.21-.475 2.519-.714 3.928-.714M118.961 29.71h1.21a9.3 9.3 0 0 0 2.406-.31 4.965 4.965 0 0 0 2.032-1.071c.581-.507 1.046-1.183 1.398-2.033.351-.85.527-1.903.527-3.166 0-1.883-.527-3.316-1.583-4.3-1.054-.981-2.483-1.473-4.283-1.473h-1.707V29.71zm2.266-15.954c1.551 0 2.96.196 4.221.589 1.262.393 2.344.983 3.243 1.769.901.787 1.594 1.766 2.081 2.935.486 1.169.73 2.529.73 4.08 0 1.74-.29 3.245-.87 4.518-.579 1.272-1.37 2.328-2.375 3.166-1.004.837-2.178 1.464-3.523 1.877-1.345.416-2.773.622-4.284.622h-6.208V13.756h6.985zM134.515 13.756h13.037v3.6h-8.318v4.004h7.51v3.57h-7.51v4.78h8.412v3.602h-13.131zM155.656 22.695h1.428c1.077 0 1.946-.217 2.607-.65.662-.436.994-1.14.994-2.113 0-.806-.268-1.448-.806-1.924s-1.315-.714-2.328-.714h-1.894v5.401zm-4.718-8.939h7.76c1.118 0 2.106.16 2.965.481.858.32 1.572.76 2.141 1.318.57.56.999 1.211 1.29 1.956.29.746.434 1.542.434 2.39 0 .808-.12 1.517-.356 2.127a5.913 5.913 0 0 1-.916 1.6 5.563 5.563 0 0 1-1.212 1.116c-.435.29-.838.517-1.21.682l4.688 7.885h-5.433l-3.476-7.047h-1.957v7.047h-4.718V13.756zM175.37 13.384c1.366 0 2.546.14 3.54.419.992.279 1.851.615 2.575 1.008l-1.054 3.446a13.82 13.82 0 0 0-2.438-.977 8.347 8.347 0 0 0-2.343-.358c-.953 0-1.676.176-2.173.527-.497.353-.745.819-.745 1.398 0 .662.238 1.143.714 1.442.476.3 1.21.616 2.204.948l1.831.589c.724.248 1.397.555 2.018.916a7.06 7.06 0 0 1 1.6 1.257 5.374 5.374 0 0 1 1.04 1.614c.247.6.371 1.252.371 1.957a5.96 5.96 0 0 1-.466 2.343 5.364 5.364 0 0 1-1.412 1.94c-.63.558-1.428.999-2.39 1.319-.963.32-2.096.482-3.399.482-1.222 0-2.386-.13-3.493-.39a13.291 13.291 0 0 1-3.057-1.101l1.056-3.445c.89.435 1.758.776 2.607 1.024a9.467 9.467 0 0 0 2.67.372c1.096 0 1.888-.181 2.374-.543.486-.361.73-.853.73-1.474a1.68 1.68 0 0 0-.125-.621c-.083-.206-.243-.413-.48-.621-.239-.206-.57-.408-.994-.606a13.796 13.796 0 0 0-1.63-.604l-1.52-.528a16.435 16.435 0 0 1-2.018-.9 6.46 6.46 0 0 1-1.599-1.18 4.93 4.93 0 0 1-1.04-1.583c-.249-.6-.372-1.314-.372-2.141 0-.85.16-1.635.481-2.36.32-.724.796-1.35 1.427-1.88.632-.526 1.407-.94 2.328-1.24.921-.3 1.982-.45 3.182-.45M75.396 63.287V43.731h4.718v7.606h6.798v-7.606h4.718v19.556h-4.718V55h-6.798v8.287zM99.7 53.541c0 1.097.13 2.059.388 2.886.259.828.617 1.511 1.072 2.05.455.538.978.941 1.567 1.21.59.268 1.225.404 1.91.404.662 0 1.287-.136 1.876-.404a4.208 4.208 0 0 0 1.537-1.21c.434-.539.776-1.222 1.025-2.05.248-.827.373-1.789.373-2.886 0-1.138-.13-2.127-.39-2.965-.258-.839-.615-1.526-1.07-2.064a4.488 4.488 0 0 0-1.567-1.21 4.545 4.545 0 0 0-1.909-.405c-.663 0-1.29.14-1.877.419-.59.281-1.104.7-1.538 1.258-.434.559-.775 1.252-1.024 2.079-.248.828-.372 1.791-.372 2.888m4.936-10.182c1.406 0 2.71.233 3.91.699a8.819 8.819 0 0 1 3.103 2.002c.87.869 1.547 1.935 2.034 3.197.487 1.263.73 2.69.73 4.284 0 1.552-.254 2.948-.76 4.19-.508 1.242-1.201 2.302-2.08 3.181a8.883 8.883 0 0 1-3.135 2.019c-1.211.465-2.52.698-3.926.698-1.41 0-2.713-.229-3.913-.683a8.783 8.783 0 0 1-3.103-1.971c-.87-.859-1.547-1.913-2.034-3.166-.486-1.252-.73-2.675-.73-4.268 0-1.553.248-2.954.745-4.206.497-1.252 1.19-2.323 2.08-3.213a9.117 9.117 0 0 1 3.151-2.049c1.212-.475 2.52-.714 3.927-.714M117.328 43.731h4.72v11.702c0 1.47.298 2.608.898 3.415.601.808 1.531 1.212 2.794 1.212 1.242 0 2.137-.399 2.685-1.196.55-.797.823-1.816.823-3.057V43.73h4.718v11.671c0 5.484-2.742 8.226-8.226 8.226-2.607 0-4.66-.682-6.162-2.048-1.5-1.366-2.25-3.477-2.25-6.333V43.731zM144.393 43.36c1.365 0 2.546.14 3.539.418.993.28 1.852.615 2.576 1.01l-1.055 3.444a13.857 13.857 0 0 0-2.437-.977 8.384 8.384 0 0 0-2.344-.358c-.952 0-1.675.177-2.173.528-.496.353-.745.818-.745 1.397 0 .662.239 1.143.714 1.443.477.3 1.21.616 2.204.947l1.83.59c.726.248 1.399.554 2.019.915a7.092 7.092 0 0 1 1.6 1.258 5.347 5.347 0 0 1 1.039 1.613c.249.601.373 1.253.373 1.957a5.96 5.96 0 0 1-.466 2.343 5.364 5.364 0 0 1-1.412 1.94c-.632.558-1.43 1-2.391 1.32-.962.32-2.095.481-3.398.481-1.222 0-2.386-.13-3.493-.388a13.34 13.34 0 0 1-3.057-1.103l1.056-3.445c.888.435 1.757.776 2.607 1.024a9.458 9.458 0 0 0 2.669.373c1.097 0 1.889-.18 2.375-.544.486-.36.729-.853.729-1.474 0-.206-.042-.413-.124-.62-.083-.207-.244-.414-.481-.62-.238-.208-.57-.41-.993-.607a13.846 13.846 0 0 0-1.63-.605l-1.521-.528a16.45 16.45 0 0 1-2.018-.9 6.472 6.472 0 0 1-1.6-1.18 4.964 4.964 0 0 1-1.04-1.583c-.247-.599-.371-1.314-.371-2.14 0-.85.16-1.636.482-2.36a5.14 5.14 0 0 1 1.427-1.879c.63-.528 1.407-.94 2.328-1.24.92-.302 1.982-.45 3.182-.45M154.559 43.731h13.037v3.601h-8.318v4.004h7.51v3.57h-7.51v4.78h8.41v3.601h-13.13zM38.03 70.586c-17.73 0-27.134-13.288-27.134-30.693 0-17.08 9.84-30.488 28.43-30.488 6.032 0 11.873 1.788 16.331 4.642l-.015.016v22.07H40.413v-12.78h-6.406v32.06h6.406V40.808h15.227V65.07l.009.008c-4.65 3.25-10.444 5.508-17.62 5.508zM62.049 9.223l.032-.025C60.172 7.633 58.01 6.29 55.666 5.2c-4.81-2.25-10.428-3.473-16.342-3.473C13.487 1.728.956 19.784.956 39.78c0 20.108 11.889 38.483 37.076 38.483 6.81 0 12.73-1.773 17.636-4.444a37.594 37.594 0 0 0 6.413-4.41l-.032-.024V9.223z"/>
    </g>
</svg>
