<?xml version="1.0" encoding="utf-8"?>
<!-- Generator: Adobe Illustrator 23.0.6, SVG Export Plug-In . SVG Version: 6.00 Build 0)  -->
<svg version="1.0" id="Layer_1" xmlns="http://www.w3.org/2000/svg" xmlns:xlink="http://www.w3.org/1999/xlink" x="0px" y="0px"
	 width="210px" height="172px" viewBox="0 0 210 172" enable-background="new 0 0 210 172" xml:space="preserve">
<g>
	<path fill="none" stroke="#DEDEE3" stroke-dasharray="6,8" d="M60,165c33.14,0,60-26.86,60-60S93.14,45,60,45S0,71.86,0,105
		S26.86,165,60,165z"/>
	<path fill="none" stroke="#DEDEE3" stroke-dasharray="6,8" d="M150,123c33.14,0,60-26.86,60-60S183.14,3,150,3S90,29.86,90,63
		S116.86,123,150,123z"/>
	<g transform="translate(28.926 19)">
		<defs>
			<filter id="Adobe_OpacityMaskFilter" filterUnits="userSpaceOnUse" x="0" y="0.19" width="132.82" height="133.82">
				<feColorMatrix  type="matrix" values="1 0 0 0 0  0 1 0 0 0  0 0 1 0 0  0 0 0 1 0"/>
			</filter>
		</defs>
		<mask maskUnits="userSpaceOnUse" x="0" y="0.19" width="132.82" height="133.82" id="b_1_">
			<g filter="url(#Adobe_OpacityMaskFilter)">
				<path id="a_1_" fill-rule="evenodd" clip-rule="evenodd" fill="#FFFFFF" d="M0,0.19h132.82V134H0V0.19z"/>
			</g>
		</mask>
		<path mask="url(#b_1_)" fill-rule="evenodd" clip-rule="evenodd" fill="#C6DEF4" d="M132.82,67.09
			c0,36.95-29.73,66.91-66.41,66.91S0,104.04,0,67.09S29.73,0.19,66.41,0.19S132.82,30.14,132.82,67.09"/>
	</g>
	<g transform="translate(28.926 19)">
		<defs>
			<filter id="Adobe_OpacityMaskFilter_1_" filterUnits="userSpaceOnUse" x="98" y="39.43" width="53.72" height="45.46">
				<feColorMatrix  type="matrix" values="1 0 0 0 0  0 1 0 0 0  0 0 1 0 0  0 0 0 1 0"/>
			</filter>
		</defs>
		<mask maskUnits="userSpaceOnUse" x="98" y="39.43" width="53.72" height="45.46" id="d_1_">
			<g filter="url(#Adobe_OpacityMaskFilter_1_)">
				<path id="c_1_" fill-rule="evenodd" clip-rule="evenodd" fill="#FFFFFF" d="M66.41,0.18C29.73,0.18,0,30.11,0,67.03
					c0,36.92,29.73,66.85,66.41,66.85c36.68,0,66.41-29.93,66.41-66.85C132.82,30.11,103.09,0.18,66.41,0.18z"/>
			</g>
		</mask>
		<path mask="url(#d_1_)" fill-rule="evenodd" clip-rule="evenodd" fill="#FFFFFF" d="M98,84.89h53.72V39.43H98L98,84.89z"/>
	</g>
	<g transform="translate(28.926 19)">
		<path fill-rule="evenodd" clip-rule="evenodd" fill="#D9D8D7" d="M6.39,67.09v45.27c0,1.04,0.41,2.05,1.15,2.78
			c0.73,0.74,1.73,1.15,2.78,1.15h75.89c1.04,0,2.04-0.42,2.77-1.15c0.74-0.74,1.15-1.74,1.15-2.78V67.09H6.39L6.39,67.09z"/>
		<path fill-rule="evenodd" clip-rule="evenodd" fill="#FFFFFF" d="M58.66,112.9c0,0.18-0.14,0.32-0.31,0.32H38.17
			c-0.17,0-0.31-0.14-0.31-0.31c0,0,0,0,0,0v-12c0-0.17,0.14-0.32,0.31-0.32h20.17c0.18,0,0.31,0.14,0.31,0.32V112.9z M15.6,75.98
			c0,0.14-0.11,0.25-0.25,0.25h-3.74c-0.13,0-0.24-0.11-0.24-0.25c0,0,0,0,0,0v-3.74c0-0.13,0.1-0.24,0.23-0.24c0,0,0,0,0,0h3.74
			c0.14,0,0.25,0.11,0.25,0.25V75.98z M23.34,81.14c0,0.13-0.1,0.24-0.23,0.25c0,0,0,0-0.01,0h-3.74c-0.14,0-0.25-0.11-0.25-0.25
			c0,0,0,0,0,0v-3.75c0-0.13,0.11-0.24,0.25-0.24h3.74c0.13,0,0.24,0.11,0.24,0.24V81.14z M24.56,86.3c0,0.13-0.11,0.24-0.24,0.24
			h-3.74c-0.14,0-0.25-0.11-0.25-0.24v-3.75c0-0.13,0.11-0.24,0.25-0.24h3.74c0.13,0,0.24,0.11,0.24,0.24V86.3z M22.05,91.45
			c0,0.13-0.11,0.25-0.25,0.25h-3.74c-0.13,0-0.24-0.11-0.24-0.25v-3.75c0-0.14,0.11-0.24,0.24-0.24h3.74
			c0.14,0,0.25,0.11,0.25,0.24V91.45z M15.6,97.26c0,0.14-0.11,0.25-0.25,0.25c0,0,0,0,0,0h-3.74c-0.13,0-0.24-0.11-0.24-0.24
			c0,0,0,0,0,0v-4.4c0-0.13,0.11-0.24,0.24-0.24h3.74c0.14,0,0.25,0.11,0.25,0.24V97.26z M20.73,97.26c0,0.13-0.1,0.24-0.24,0.25
			c0,0,0,0,0,0h-3.74c-0.13,0-0.25-0.1-0.25-0.24c0,0,0-0.01,0-0.01v-4.4c0-0.13,0.11-0.24,0.25-0.24h3.74
			c0.13,0,0.24,0.11,0.24,0.24V97.26z M25.87,97.26c0,0.14-0.11,0.25-0.25,0.25h-3.74c-0.13,0-0.24-0.11-0.24-0.24c0,0,0,0,0,0v-4.4
			c0-0.13,0.11-0.24,0.24-0.24h3.74c0.13,0,0.25,0.11,0.25,0.24V97.26z M69.71,97.26c0,0.14-0.11,0.25-0.25,0.25h-3.74
			c-0.14,0-0.24-0.11-0.25-0.25v-4.4c0-0.13,0.11-0.24,0.25-0.24h3.74c0.13,0,0.25,0.11,0.25,0.24L69.71,97.26L69.71,97.26z
			 M74.85,97.26c0,0.13-0.1,0.24-0.23,0.25c0,0,0,0-0.01,0h-3.74c-0.13,0-0.25-0.1-0.25-0.24c0,0,0-0.01,0-0.01v-1.95
			c0-0.14,0.11-0.24,0.25-0.24h3.74c0.13,0,0.24,0.11,0.24,0.24V97.26z M85.14,97.26c0,0.13-0.1,0.24-0.23,0.25c0,0,0,0,0,0h-3.74
			c-0.14,0-0.25-0.11-0.25-0.25v-1.95c0-0.14,0.11-0.24,0.25-0.24h3.74c0.13,0,0.24,0.11,0.24,0.24V97.26z M32.34,97.26
			c0,0.13-0.1,0.24-0.23,0.25c0,0,0,0,0,0h-5.08c-0.13,0-0.24-0.1-0.25-0.24c0,0,0,0,0-0.01v-4.4c0-0.13,0.11-0.24,0.25-0.24h5.08
			c0.13,0,0.24,0.11,0.24,0.24V97.26z M64.56,97.26c0,0.13-0.11,0.24-0.24,0.25c0,0-0.01,0-0.01,0h-5.08
			c-0.13,0-0.24-0.11-0.24-0.25v-4.4c0-0.13,0.11-0.24,0.24-0.24h5.08c0.14,0,0.25,0.11,0.25,0.24V97.26z M58.07,97.26
			c0,0.13-0.1,0.24-0.24,0.25c0,0,0,0,0,0H33.5c-0.13,0-0.24-0.11-0.24-0.25c0,0,0,0,0,0v-4.4c0-0.13,0.11-0.24,0.24-0.24h24.33
			c0.13,0,0.24,0.11,0.24,0.24L58.07,97.26L58.07,97.26z M27.19,91.45c0,0.13-0.1,0.24-0.24,0.25h-3.74c-0.13,0-0.24-0.11-0.25-0.25
			v-3.75c0-0.14,0.12-0.24,0.25-0.24h3.74c0.13,0,0.24,0.11,0.24,0.24c0,0,0,0,0,0L27.19,91.45L27.19,91.45z M32.34,91.45
			c0,0.13-0.1,0.24-0.24,0.25h-3.74c-0.14,0-0.25-0.11-0.25-0.24c0,0,0,0,0,0v-3.75c0-0.14,0.11-0.24,0.25-0.24h3.74
			c0.13,0,0.24,0.11,0.24,0.24c0,0,0,0,0,0V91.45z M37.49,91.45c0,0.14-0.11,0.25-0.25,0.25c0,0,0,0,0,0H33.5
			c-0.13,0-0.24-0.11-0.24-0.25v-3.75c0-0.14,0.11-0.24,0.24-0.24h3.74c0.14,0,0.25,0.11,0.25,0.24L37.49,91.45L37.49,91.45z
			 M42.63,91.45c0,0.13-0.11,0.24-0.24,0.25h-3.74c-0.14,0-0.25-0.11-0.25-0.25v-3.75c0-0.14,0.11-0.24,0.25-0.24h3.74
			c0.13,0,0.24,0.11,0.24,0.24V91.45z M47.78,91.45c0,0.13-0.11,0.25-0.25,0.25H43.8c-0.14,0-0.25-0.11-0.25-0.25v-3.75
			c0-0.14,0.11-0.24,0.25-0.24h3.73c0.14,0,0.25,0.11,0.25,0.24V91.45z M52.93,91.45c0,0.13-0.11,0.24-0.24,0.25c0,0,0,0,0,0h-3.74
			c-0.13,0-0.24-0.11-0.24-0.25v-3.75c0-0.14,0.11-0.24,0.24-0.24h3.74c0.14,0,0.24,0.11,0.24,0.24V91.45z M58.07,91.45
			c0,0.13-0.11,0.24-0.24,0.25h-3.74c-0.14,0-0.24-0.11-0.24-0.25l0,0v-3.75c0-0.14,0.11-0.24,0.24-0.24h3.74
			c0.13,0,0.24,0.11,0.24,0.24V91.45z M63.22,91.45c0,0.13-0.11,0.25-0.25,0.25h-3.74c-0.13,0-0.24-0.11-0.24-0.25v-3.75
			c0-0.14,0.11-0.24,0.24-0.24h3.74c0.14,0,0.25,0.11,0.25,0.24C63.22,87.71,63.22,91.45,63.22,91.45z M68.37,91.45
			c0,0.13-0.11,0.24-0.25,0.25h-3.74c-0.13,0-0.24-0.11-0.24-0.25v-3.75c0-0.14,0.11-0.24,0.24-0.24h3.74
			c0.13,0,0.25,0.11,0.25,0.24V91.45z M73.51,91.45c0,0.13-0.11,0.25-0.24,0.25h-3.74c-0.14,0-0.25-0.11-0.25-0.25v-3.75
			c0-0.14,0.11-0.24,0.25-0.24h3.74c0.13,0,0.24,0.11,0.24,0.24L73.51,91.45L73.51,91.45z M85.14,91.45c0,0.13-0.1,0.24-0.23,0.25
			H74.72c-0.13,0-0.24-0.11-0.25-0.24c0,0,0,0,0,0v-3.75c0-0.14,0.11-0.24,0.25-0.24H84.9c0.13,0,0.23,0.11,0.23,0.24V91.45z
			 M29.71,86.3c0,0.13-0.11,0.24-0.24,0.24c0,0,0,0-0.01,0h-3.74c-0.13,0-0.24-0.11-0.24-0.24v-3.75c0-0.13,0.11-0.24,0.24-0.24
			h3.74c0.14,0,0.25,0.11,0.25,0.24V86.3z M34.85,86.3c0,0.13-0.11,0.24-0.24,0.24h-3.74c-0.13,0-0.24-0.11-0.25-0.24v-3.75
			c0-0.13,0.11-0.24,0.25-0.24h3.74c0.13,0,0.24,0.11,0.24,0.24L34.85,86.3L34.85,86.3z M40,86.3c0,0.13-0.11,0.24-0.24,0.24
			c0,0,0,0,0,0h-3.74c-0.13,0-0.24-0.11-0.24-0.24v-3.75c0-0.13,0.11-0.24,0.24-0.24h3.74c0.14,0,0.25,0.11,0.25,0.24
			C40,82.55,40,86.3,40,86.3z M45.15,86.3c0,0.13-0.12,0.24-0.25,0.24h-3.74c-0.13,0-0.24-0.11-0.24-0.24v-3.75
			c0-0.13,0.11-0.24,0.24-0.24h3.74c0.13,0,0.25,0.11,0.25,0.24V86.3z M50.3,86.3c0,0.13-0.11,0.24-0.24,0.24h-3.74
			c-0.14,0-0.25-0.11-0.25-0.24v-3.75c0-0.13,0.11-0.24,0.25-0.24h3.74c0.13,0,0.24,0.11,0.24,0.24C50.3,82.55,50.3,86.3,50.3,86.3z
			 M55.44,86.3c0,0.13-0.11,0.24-0.24,0.24c0,0,0,0,0,0h-3.74c-0.13,0-0.24-0.11-0.24-0.24v-3.75c0-0.13,0.11-0.24,0.24-0.24h3.74
			c0.14,0,0.24,0.11,0.24,0.24C55.44,82.55,55.44,86.3,55.44,86.3z M60.59,86.3c0,0.13-0.11,0.24-0.24,0.24h-3.74
			c-0.13,0-0.24-0.11-0.25-0.24v-3.75c0-0.13,0.11-0.24,0.25-0.24h3.74c0.13,0,0.24,0.11,0.24,0.24V86.3z M65.73,86.3
			c0,0.13-0.11,0.24-0.24,0.24h-3.74c-0.14,0-0.25-0.11-0.25-0.24c0,0,0,0,0,0v-3.75c0-0.13,0.11-0.24,0.25-0.24h3.74
			c0.13,0,0.24,0.11,0.24,0.24L65.73,86.3L65.73,86.3z M70.88,86.3c0,0.13-0.11,0.24-0.25,0.24c0,0,0,0,0,0H66.9
			c-0.13,0-0.24-0.11-0.24-0.24v-3.75c0-0.13,0.11-0.24,0.24-0.24h3.74c0.14,0,0.25,0.11,0.25,0.24V86.3z M76.02,86.3
			c0,0.13-0.11,0.24-0.24,0.24h-3.74c-0.14,0-0.25-0.11-0.25-0.24v-3.75c0-0.13,0.12-0.24,0.25-0.24h3.74
			c0.13,0,0.24,0.11,0.24,0.24L76.02,86.3L76.02,86.3z M81.17,86.3c0,0.13-0.11,0.24-0.24,0.24h-3.74c-0.13,0-0.24-0.1-0.24-0.24
			c0,0,0,0,0-0.01v-3.75c0-0.13,0.1-0.24,0.25-0.24h3.74c0.13,0,0.24,0.11,0.24,0.24L81.17,86.3L81.17,86.3z M28.49,81.14
			c0,0.14-0.11,0.25-0.24,0.25h-3.74c-0.14,0-0.24-0.11-0.24-0.25v-3.75c0-0.13,0.11-0.24,0.24-0.24h3.74
			c0.13,0,0.24,0.11,0.24,0.24V81.14z M33.64,81.14c0,0.14-0.11,0.25-0.25,0.25h-3.74c-0.13,0-0.24-0.11-0.24-0.24c0,0,0,0,0,0
			v-3.75c0-0.13,0.11-0.24,0.24-0.24h3.74c0.13,0,0.25,0.11,0.25,0.24V81.14z M38.78,81.14c0,0.14-0.11,0.25-0.24,0.25h-3.74
			c-0.14,0-0.25-0.11-0.25-0.24c0,0,0,0,0-0.01v-3.75c0-0.13,0.11-0.24,0.25-0.24h3.74c0.13,0,0.24,0.11,0.24,0.24V81.14z
			 M43.93,81.14c0,0.13-0.1,0.24-0.24,0.25c0,0,0,0-0.01,0h-3.74c-0.13,0-0.24-0.11-0.24-0.24c0,0,0,0,0,0v-3.75
			c0-0.13,0.11-0.24,0.24-0.24h3.74c0.14,0,0.24,0.11,0.24,0.24C43.93,77.39,43.93,81.14,43.93,81.14z M49.08,81.14
			c0,0.14-0.11,0.25-0.25,0.25H45.1c-0.13,0-0.24-0.11-0.24-0.25v-3.75c0-0.13,0.11-0.24,0.24-0.24h3.74c0.13,0,0.25,0.11,0.25,0.24
			V81.14z M54.22,81.14c0,0.13-0.1,0.24-0.23,0.25c0,0,0,0,0,0h-3.74c-0.14,0-0.25-0.11-0.25-0.24c0,0,0,0,0,0v-3.75
			c0-0.13,0.11-0.24,0.25-0.24h3.74c0.13,0,0.24,0.11,0.24,0.24L54.22,81.14L54.22,81.14z M59.37,81.14c0,0.13-0.1,0.24-0.24,0.25
			c0,0-0.01,0-0.01,0h-3.74c-0.13,0-0.24-0.11-0.24-0.24c0,0,0,0,0,0v-3.75c0-0.13,0.11-0.24,0.24-0.24h3.74
			c0.14,0,0.25,0.11,0.25,0.24L59.37,81.14L59.37,81.14z M64.52,81.14c0,0.14-0.11,0.25-0.25,0.25h-3.74
			c-0.14,0-0.25-0.11-0.25-0.25v-3.75c0-0.13,0.12-0.24,0.25-0.24h3.74c0.13,0,0.25,0.11,0.25,0.24V81.14z M69.66,81.14
			c0,0.13-0.1,0.24-0.23,0.25c0,0,0,0,0,0h-3.74c-0.13,0-0.25-0.1-0.25-0.24c0,0,0-0.01,0-0.01v-3.75c0-0.13,0.11-0.24,0.25-0.24
			h3.74c0.13,0,0.24,0.11,0.24,0.24V81.14z M74.81,81.14c0,0.13-0.11,0.25-0.24,0.25c0,0,0,0-0.01,0h-3.74
			c-0.13,0-0.24-0.11-0.24-0.24c0,0,0,0,0,0v-3.75c0-0.13,0.11-0.24,0.24-0.24h3.74c0.14,0,0.25,0.11,0.25,0.24L74.81,81.14
			L74.81,81.14z M79.95,81.14c0,0.13-0.1,0.24-0.23,0.25c0,0,0,0,0,0h-3.74c-0.14,0-0.24-0.11-0.25-0.25v-3.75
			c0-0.13,0.12-0.24,0.25-0.24h3.74c0.13,0,0.24,0.11,0.24,0.24L79.95,81.14L79.95,81.14z M18.2,81.14c0,0.13-0.11,0.25-0.24,0.25
			c0,0-0.01,0-0.01,0h-6.34c-0.13,0-0.24-0.11-0.24-0.25c0,0,0,0,0,0v-3.75c0-0.13,0.11-0.24,0.24-0.24h6.34
			c0.14,0,0.25,0.11,0.25,0.24V81.14z M85.14,75.98c0,0.13-0.1,0.24-0.24,0.25h-6.34c-0.13,0-0.24-0.11-0.24-0.24c0,0,0,0,0,0v-3.74
			c0-0.14,0.11-0.25,0.24-0.25h6.34c0.13,0,0.24,0.11,0.24,0.24c0,0,0,0,0,0L85.14,75.98L85.14,75.98z M19.42,86.3
			c0,0.13-0.11,0.24-0.24,0.24h-7.56c-0.13,0-0.24-0.11-0.24-0.24v-3.75c0-0.13,0.11-0.24,0.24-0.24h7.56
			c0.13,0,0.24,0.11,0.24,0.24V86.3z M16.9,91.45c0,0.13-0.11,0.25-0.24,0.25h-5.05c-0.13,0-0.24-0.11-0.24-0.25v-3.75
			c0-0.13,0.1-0.24,0.24-0.24c0,0,0,0,0,0h5.05c0.13,0,0.24,0.11,0.24,0.24L16.9,91.45L16.9,91.45z M20.74,75.98
			c0,0.13-0.1,0.24-0.24,0.25c0,0,0,0,0,0h-3.74c-0.14,0-0.25-0.11-0.25-0.24c0,0,0,0,0-0.01v-3.74c0-0.14,0.11-0.25,0.25-0.25h3.74
			c0.13,0,0.24,0.11,0.24,0.24c0,0,0,0,0,0.01V75.98z M25.89,75.98c0,0.14-0.11,0.25-0.24,0.25c0,0-0.01,0-0.01,0h-3.74
			c-0.13,0-0.24-0.11-0.24-0.25c0,0,0,0,0,0v-3.74c0-0.14,0.11-0.25,0.24-0.25h3.74c0.14,0,0.25,0.11,0.25,0.25V75.98z M31.05,75.98
			c0,0.14-0.12,0.25-0.25,0.25h-3.74c-0.14,0-0.24-0.11-0.25-0.25v-3.74c0-0.14,0.11-0.25,0.25-0.25h3.74
			c0.13,0,0.25,0.11,0.25,0.25V75.98z M36.19,75.98c0,0.14-0.11,0.25-0.24,0.25h-3.74c-0.14,0-0.25-0.11-0.25-0.25v-3.74
			c0-0.14,0.11-0.25,0.25-0.25h3.74c0.13,0,0.24,0.11,0.24,0.25L36.19,75.98L36.19,75.98z M41.33,75.98c0,0.13-0.1,0.24-0.24,0.25
			c0,0-0.01,0-0.01,0h-3.74c-0.13,0-0.24-0.11-0.24-0.25v-3.74c0-0.14,0.11-0.25,0.24-0.25h3.74c0.13,0,0.24,0.1,0.24,0.23
			c0,0,0,0.01,0,0.01V75.98z M46.47,75.98c0,0.14-0.11,0.25-0.24,0.25H42.5c-0.14,0-0.25-0.11-0.25-0.25v-3.74
			c0-0.14,0.11-0.25,0.25-0.25h3.73c0.13,0,0.24,0.11,0.24,0.25V75.98z M51.62,75.98c0,0.13-0.1,0.24-0.24,0.25c0,0,0,0,0,0h-3.74
			c-0.13,0-0.25-0.1-0.25-0.24c0,0,0-0.01,0-0.01v-3.74c0-0.14,0.11-0.25,0.25-0.25h3.74c0.13,0,0.24,0.11,0.24,0.24c0,0,0,0,0,0
			V75.98z M56.77,75.98c0,0.14-0.11,0.25-0.25,0.25h-3.74c-0.13,0-0.24-0.11-0.24-0.25c0,0,0,0,0,0v-3.74
			c0-0.14,0.11-0.25,0.24-0.25h3.74c0.14,0,0.25,0.11,0.25,0.25V75.98z M61.91,75.98c0,0.13-0.1,0.24-0.24,0.25c0,0,0,0,0,0h-3.74
			c-0.14,0-0.25-0.11-0.25-0.25c0,0,0,0,0,0v-3.74c0-0.14,0.11-0.25,0.25-0.25h3.74c0.13,0,0.24,0.11,0.24,0.24c0,0,0,0,0,0V75.98z
			 M67.06,75.98c0,0.13-0.11,0.25-0.24,0.25c0,0,0,0-0.01,0h-3.74c-0.13,0-0.24-0.11-0.24-0.25v-3.74c0-0.14,0.11-0.25,0.24-0.25
			h3.74c0.14,0,0.25,0.11,0.25,0.25V75.98z M72.21,75.98c0,0.14-0.12,0.25-0.25,0.25h-3.74c-0.13,0-0.24-0.11-0.24-0.24c0,0,0,0,0,0
			v-3.74c0-0.13,0.1-0.24,0.23-0.24c0,0,0,0,0,0h3.74c0.13,0,0.25,0.11,0.25,0.25L72.21,75.98L72.21,75.98z M77.35,75.98
			c0,0.13-0.1,0.25-0.24,0.25c0,0,0,0,0,0h-3.74c-0.14,0-0.25-0.11-0.25-0.24c0,0,0,0,0,0v-3.74c0-0.14,0.11-0.25,0.25-0.25h3.74
			c0.13,0,0.24,0.11,0.24,0.24c0,0,0,0,0,0V75.98z M75.77,95.2v2.06c0,0.06,0.02,0.12,0.07,0.17c0.04,0.05,0.11,0.07,0.17,0.07h3.74
			c0.07,0,0.13-0.03,0.17-0.07c0.05-0.04,0.07-0.11,0.07-0.17V95.2H75.77z M80,94.92v-2.06c0-0.06-0.03-0.12-0.07-0.17
			c-0.05-0.05-0.11-0.08-0.17-0.08h-3.74c-0.06,0-0.12,0.03-0.17,0.08c-0.05,0.04-0.07,0.1-0.07,0.17v2.06L80,94.92L80,94.92z
			 M81.16,77.15c-0.07,0-0.13,0.03-0.18,0.07c-0.04,0.05-0.07,0.1-0.07,0.17v3.75c0,0.07,0.03,0.13,0.07,0.18
			c0.05,0.05,0.11,0.07,0.18,0.07h0.97v4.92c0,0.06,0.02,0.12,0.07,0.17c0.04,0.05,0.11,0.07,0.18,0.07h2.51
			c0.07,0,0.13-0.03,0.18-0.07c0.04-0.05,0.06-0.11,0.06-0.17v-8.91c0-0.06-0.02-0.12-0.06-0.17c-0.05-0.05-0.11-0.08-0.18-0.07
			L81.16,77.15L81.16,77.15z"/>
		<path fill-rule="evenodd" clip-rule="evenodd" fill="#232E38" d="M10.31,17.88c-2.17,0-3.93,1.77-3.93,3.94v45.27h83.74V21.82
			c0-1.04-0.41-2.05-1.15-2.78c-0.73-0.74-1.73-1.15-2.77-1.15H10.31z"/>
		<path fill-rule="evenodd" clip-rule="evenodd" fill="#474F59" d="M49.2,20.06c0,0.52-0.42,0.94-0.94,0.95
			c-0.52,0-0.94-0.43-0.94-0.95c0-0.52,0.42-0.94,0.94-0.94C48.77,19.13,49.2,19.54,49.2,20.06"/>
		<path fill-rule="evenodd" clip-rule="evenodd" fill="#FFFFFF" d="M48.64,20.06c0,0.21-0.17,0.38-0.38,0.39
			c-0.21,0-0.38-0.17-0.39-0.38c0-0.21,0.17-0.38,0.38-0.39C48.47,19.68,48.64,19.85,48.64,20.06"/>
		<defs>
			<filter id="Adobe_OpacityMaskFilter_2_" filterUnits="userSpaceOnUse" x="82.39" y="65.32" width="5.5" height="3.54">
				<feColorMatrix  type="matrix" values="1 0 0 0 0  0 1 0 0 0  0 0 1 0 0  0 0 0 1 0"/>
			</filter>
		</defs>
		<mask maskUnits="userSpaceOnUse" x="82.39" y="65.32" width="5.5" height="3.54" id="f_1_">
			<g filter="url(#Adobe_OpacityMaskFilter_2_)">
				<path id="e_1_" fill-rule="evenodd" clip-rule="evenodd" fill="#FFFFFF" d="M0,134h152.59V0.19H0V134z"/>
			</g>
		</mask>
		<path mask="url(#f_1_)" fill-rule="evenodd" clip-rule="evenodd" fill="#474F59" d="M82.39,68.86h5.5v-3.54h-5.5V68.86z"/>
		<defs>
			<filter id="Adobe_OpacityMaskFilter_3_" filterUnits="userSpaceOnUse" x="82.39" y="67.09" width="5.5" height="1.77">
				<feColorMatrix  type="matrix" values="1 0 0 0 0  0 1 0 0 0  0 0 1 0 0  0 0 0 1 0"/>
			</filter>
		</defs>
		<mask maskUnits="userSpaceOnUse" x="82.39" y="67.09" width="5.5" height="1.77" id="f_2_">
			<g filter="url(#Adobe_OpacityMaskFilter_3_)">
				<path id="e_2_" fill-rule="evenodd" clip-rule="evenodd" fill="#FFFFFF" d="M0,134h152.59V0.19H0V134z"/>
			</g>
		</mask>
		<path mask="url(#f_2_)" fill-rule="evenodd" clip-rule="evenodd" fill="#232E38" d="M82.39,68.86h5.5v-1.77h-5.5V68.86z"/>
		<defs>
			<filter id="Adobe_OpacityMaskFilter_4_" filterUnits="userSpaceOnUse" x="8.62" y="65.32" width="5.5" height="3.54">
				<feColorMatrix  type="matrix" values="1 0 0 0 0  0 1 0 0 0  0 0 1 0 0  0 0 0 1 0"/>
			</filter>
		</defs>
		<mask maskUnits="userSpaceOnUse" x="8.62" y="65.32" width="5.5" height="3.54" id="f_3_">
			<g filter="url(#Adobe_OpacityMaskFilter_4_)">
				<path id="e_3_" fill-rule="evenodd" clip-rule="evenodd" fill="#FFFFFF" d="M0,134h152.59V0.19H0V134z"/>
			</g>
		</mask>
		<path mask="url(#f_3_)" fill-rule="evenodd" clip-rule="evenodd" fill="#474F59" d="M8.62,68.86h5.5v-3.54h-5.5L8.62,68.86z"/>
		<defs>
			<filter id="Adobe_OpacityMaskFilter_5_" filterUnits="userSpaceOnUse" x="8.62" y="67.09" width="5.5" height="1.77">
				<feColorMatrix  type="matrix" values="1 0 0 0 0  0 1 0 0 0  0 0 1 0 0  0 0 0 1 0"/>
			</filter>
		</defs>
		<mask maskUnits="userSpaceOnUse" x="8.62" y="67.09" width="5.5" height="1.77" id="f_4_">
			<g filter="url(#Adobe_OpacityMaskFilter_5_)">
				<path id="e_4_" fill-rule="evenodd" clip-rule="evenodd" fill="#FFFFFF" d="M0,134h152.59V0.19H0V134z"/>
			</g>
		</mask>
		<path mask="url(#f_4_)" fill-rule="evenodd" clip-rule="evenodd" fill="#232E38" d="M8.62,68.86h5.5v-1.77h-5.5L8.62,68.86z"/>
		<defs>
			<filter id="Adobe_OpacityMaskFilter_6_" filterUnits="userSpaceOnUse" x="11.38" y="22.79" width="73.76" height="39.4">
				<feColorMatrix  type="matrix" values="1 0 0 0 0  0 1 0 0 0  0 0 1 0 0  0 0 0 1 0"/>
			</filter>
		</defs>
		<mask maskUnits="userSpaceOnUse" x="11.38" y="22.79" width="73.76" height="39.4" id="f_5_">
			<g filter="url(#Adobe_OpacityMaskFilter_6_)">
				<path id="e_5_" fill-rule="evenodd" clip-rule="evenodd" fill="#FFFFFF" d="M0,134h152.59V0.19H0V134z"/>
			</g>
		</mask>
		<path mask="url(#f_5_)" fill-rule="evenodd" clip-rule="evenodd" fill="#FFFFFF" d="M11.38,62.19h73.76v-39.4H11.38V62.19z"/>
		<defs>
			<filter id="Adobe_OpacityMaskFilter_7_" filterUnits="userSpaceOnUse" x="16.17" y="26.08" width="44.47" height="32.81">
				<feColorMatrix  type="matrix" values="1 0 0 0 0  0 1 0 0 0  0 0 1 0 0  0 0 0 1 0"/>
			</filter>
		</defs>
		<mask maskUnits="userSpaceOnUse" x="16.17" y="26.08" width="44.47" height="32.81" id="f_6_">
			<g filter="url(#Adobe_OpacityMaskFilter_7_)">
				<path id="e_6_" fill-rule="evenodd" clip-rule="evenodd" fill="#FFFFFF" d="M0,134h152.59V0.19H0V134z"/>
			</g>
		</mask>
		<path mask="url(#f_6_)" fill-rule="evenodd" clip-rule="evenodd" fill="#E6E5E5" d="M16.17,27.28h3.27v-1.19h-3.27V27.28z
			 M16.17,35.14h3.27v-1.19h-3.27V35.14z M20.28,27.28h15.41v-1.19H20.28V27.28z M20.28,35.14h11.8v-1.19h-11.8L20.28,35.14z
			 M19.44,30.27h5.19v-1.19h-5.19V30.27z M19.44,44.1h5.19v-1.2h-5.19V44.1z M25.86,44.1h13.59v-1.2H25.86L25.86,44.1z M22.38,52.92
			h4.28v-1.19h-4.28V52.92z M52.15,58.89h5.58V57.7h-5.58V58.89z M40.99,44.1h9.77v-1.2h-9.77V44.1z M52.75,44.1h5.98v-1.2h-5.98
			L52.75,44.1z M19.44,38.13h7.76v-1.19h-7.76V38.13z M19.44,41.12h11v-1.2h-11V41.12z M22.38,55.91h12.61v-1.2H22.38V55.91z
			 M22.38,58.89h11.58V57.7H22.38V58.89z M37.71,58.89h12.01V57.7H37.71L37.71,58.89z M16.17,52.92h4.46v-1.19h-4.46V52.92z
			 M31.61,41.12h11v-1.2h-11V41.12z M54.22,41.12h6.42v-1.2h-6.42V41.12z M43.37,41.12h6.87v-1.2h-6.87V41.12z M29.73,38.13h11.91
			v-1.19H29.73V38.13z M27.88,30.27h4.78v-1.19h-4.78V30.27z"/>
		<defs>
			<filter id="Adobe_OpacityMaskFilter_8_" filterUnits="userSpaceOnUse" x="98.56" y="100.28" width="17.29" height="30.88">
				<feColorMatrix  type="matrix" values="1 0 0 0 0  0 1 0 0 0  0 0 1 0 0  0 0 0 1 0"/>
			</filter>
		</defs>
		<mask maskUnits="userSpaceOnUse" x="98.56" y="100.28" width="17.29" height="30.88" id="f_7_">
			<g filter="url(#Adobe_OpacityMaskFilter_8_)">
				<path id="e_7_" fill-rule="evenodd" clip-rule="evenodd" fill="#FFFFFF" d="M0,134h152.59V0.19H0V134z"/>
			</g>
		</mask>
		<path mask="url(#f_7_)" fill-rule="evenodd" clip-rule="evenodd" fill="#FFFFFF" d="M115.85,124.8c0,3.5-2.85,6.35-6.34,6.35
			h-4.61c-3.49,0-6.34-2.86-6.34-6.35v-18.18c0-3.5,2.85-6.35,6.34-6.35h4.61c3.49,0,6.34,2.86,6.34,6.35L115.85,124.8L115.85,124.8
			z"/>
		<defs>
			<filter id="Adobe_OpacityMaskFilter_9_" filterUnits="userSpaceOnUse" x="98.66" y="101.29" width="17.19" height="29.87">
				<feColorMatrix  type="matrix" values="1 0 0 0 0  0 1 0 0 0  0 0 1 0 0  0 0 0 1 0"/>
			</filter>
		</defs>
		<mask maskUnits="userSpaceOnUse" x="98.66" y="101.29" width="17.19" height="29.87" id="f_8_">
			<g filter="url(#Adobe_OpacityMaskFilter_9_)">
				<path id="e_8_" fill-rule="evenodd" clip-rule="evenodd" fill="#FFFFFF" d="M0,134h152.59V0.19H0V134z"/>
			</g>
		</mask>
		<path mask="url(#f_8_)" fill-rule="evenodd" clip-rule="evenodd" fill="#E6E5E5" d="M112.93,101.29c0.06,0.36,0.1,0.73,0.1,1.1
			v13.79c0,2.75-1.05,5.5-3.14,7.6c-2.01,2.02-4.74,3.15-7.58,3.15h-0.23c-1.21,0-2.4-0.36-3.42-1.02c0.53,2.97,3.13,5.25,6.24,5.25
			h4.61c3.49,0,6.34-2.86,6.34-6.35v-18.18C115.85,104.39,114.68,102.43,112.93,101.29"/>
		<defs>
			<filter id="Adobe_OpacityMaskFilter_10_" filterUnits="userSpaceOnUse" x="105.76" y="105.47" width="2.88" height="2.94">
				<feColorMatrix  type="matrix" values="1 0 0 0 0  0 1 0 0 0  0 0 1 0 0  0 0 0 1 0"/>
			</filter>
		</defs>
		<mask maskUnits="userSpaceOnUse" x="105.76" y="105.47" width="2.88" height="2.94" id="f_9_">
			<g filter="url(#Adobe_OpacityMaskFilter_10_)">
				<path id="e_9_" fill-rule="evenodd" clip-rule="evenodd" fill="#FFFFFF" d="M0,134h152.59V0.19H0V134z"/>
			</g>
		</mask>
		<path mask="url(#f_9_)" fill-rule="evenodd" clip-rule="evenodd" fill="#232E38" d="M108.64,106.92c0.03,0.79-0.59,1.46-1.39,1.49
			c-0.79,0.03-1.46-0.59-1.49-1.39c0-0.04,0-0.07,0-0.11c0-0.8,0.64-1.44,1.43-1.45c0,0,0,0,0.01,0
			C108,105.47,108.64,106.12,108.64,106.92"/>
		<defs>
			<filter id="Adobe_OpacityMaskFilter_11_" filterUnits="userSpaceOnUse" x="121.61" y="59.61" width="3.97" height="6.54">
				<feColorMatrix  type="matrix" values="1 0 0 0 0  0 1 0 0 0  0 0 1 0 0  0 0 0 1 0"/>
			</filter>
		</defs>
		<mask maskUnits="userSpaceOnUse" x="121.61" y="59.61" width="3.97" height="6.54" id="f_10_">
			<g filter="url(#Adobe_OpacityMaskFilter_11_)">
				<path id="e_10_" fill-rule="evenodd" clip-rule="evenodd" fill="#FFFFFF" d="M0,134h152.59V0.19H0V134z"/>
			</g>
		</mask>
		<path mask="url(#f_10_)" fill-rule="evenodd" clip-rule="evenodd" fill="#F2F2F2" d="M125.58,66.14l-1.99-6.54l-1.99,6.54H125.58z
			"/>
		<defs>
			<filter id="Adobe_OpacityMaskFilter_12_" filterUnits="userSpaceOnUse" x="123.59" y="59.61" width="1.99" height="6.54">
				<feColorMatrix  type="matrix" values="1 0 0 0 0  0 1 0 0 0  0 0 1 0 0  0 0 0 1 0"/>
			</filter>
		</defs>
		<mask maskUnits="userSpaceOnUse" x="123.59" y="59.61" width="1.99" height="6.54" id="f_11_">
			<g filter="url(#Adobe_OpacityMaskFilter_12_)">
				<path id="e_11_" fill-rule="evenodd" clip-rule="evenodd" fill="#FFFFFF" d="M0,134h152.59V0.19H0V134z"/>
			</g>
		</mask>
		<path mask="url(#f_11_)" fill-rule="evenodd" clip-rule="evenodd" fill="#CCCBCA" d="M123.59,59.61l1.99,6.54h-1.25L123.59,59.61z
			"/>
		<defs>
			<filter id="Adobe_OpacityMaskFilter_13_" filterUnits="userSpaceOnUse" x="121.61" y="66.14" width="3.97" height="46.73">
				<feColorMatrix  type="matrix" values="1 0 0 0 0  0 1 0 0 0  0 0 1 0 0  0 0 0 1 0"/>
			</filter>
		</defs>
		<mask maskUnits="userSpaceOnUse" x="121.61" y="66.14" width="3.97" height="46.73" id="f_12_">
			<g filter="url(#Adobe_OpacityMaskFilter_13_)">
				<path id="e_12_" fill-rule="evenodd" clip-rule="evenodd" fill="#FFFFFF" d="M0,134h152.59V0.19H0V134z"/>
			</g>
		</mask>
		<path mask="url(#f_12_)" fill-rule="evenodd" clip-rule="evenodd" fill="#474F59" d="M121.61,112.87h3.97V66.14h-3.97V112.87z"/>
		<defs>
			<filter id="Adobe_OpacityMaskFilter_14_" filterUnits="userSpaceOnUse" x="124.33" y="66.14" width="1.25" height="46.73">
				<feColorMatrix  type="matrix" values="1 0 0 0 0  0 1 0 0 0  0 0 1 0 0  0 0 0 1 0"/>
			</filter>
		</defs>
		<mask maskUnits="userSpaceOnUse" x="124.33" y="66.14" width="1.25" height="46.73" id="f_13_">
			<g filter="url(#Adobe_OpacityMaskFilter_14_)">
				<path id="e_13_" fill-rule="evenodd" clip-rule="evenodd" fill="#FFFFFF" d="M0,134h152.59V0.19H0V134z"/>
			</g>
		</mask>
		<path mask="url(#f_13_)" fill-rule="evenodd" clip-rule="evenodd" fill="#232E38" d="M124.33,112.87h1.25V66.14h-1.25V112.87z"/>
		<defs>
			<filter id="Adobe_OpacityMaskFilter_15_" filterUnits="userSpaceOnUse" x="122.81" y="59.61" width="1.56" height="2.56">
				<feColorMatrix  type="matrix" values="1 0 0 0 0  0 1 0 0 0  0 0 1 0 0  0 0 0 1 0"/>
			</filter>
		</defs>
		<mask maskUnits="userSpaceOnUse" x="122.81" y="59.61" width="1.56" height="2.56" id="f_14_">
			<g filter="url(#Adobe_OpacityMaskFilter_15_)">
				<path id="e_14_" fill-rule="evenodd" clip-rule="evenodd" fill="#FFFFFF" d="M0,134h152.59V0.19H0V134z"/>
			</g>
		</mask>
		<path mask="url(#f_14_)" fill-rule="evenodd" clip-rule="evenodd" fill="#353F49" d="M124.37,62.16l-0.78-2.56l-0.78,2.56H124.37z
			"/>
		<defs>
			<filter id="Adobe_OpacityMaskFilter_16_" filterUnits="userSpaceOnUse" x="123.59" y="59.61" width="0.78" height="2.56">
				<feColorMatrix  type="matrix" values="1 0 0 0 0  0 1 0 0 0  0 0 1 0 0  0 0 0 1 0"/>
			</filter>
		</defs>
		<mask maskUnits="userSpaceOnUse" x="123.59" y="59.61" width="0.78" height="2.56" id="f_15_">
			<g filter="url(#Adobe_OpacityMaskFilter_16_)">
				<path id="e_15_" fill-rule="evenodd" clip-rule="evenodd" fill="#FFFFFF" d="M0,134h152.59V0.19H0V134z"/>
			</g>
		</mask>
		<path mask="url(#f_15_)" fill-rule="evenodd" clip-rule="evenodd" fill="#232E38" d="M124.37,62.16l-0.78-2.56l0.29,2.56H124.37z"
			/>
		<defs>
			<filter id="Adobe_OpacityMaskFilter_17_" filterUnits="userSpaceOnUse" x="121.61" y="112.87" width="3.97" height="2.31">
				<feColorMatrix  type="matrix" values="1 0 0 0 0  0 1 0 0 0  0 0 1 0 0  0 0 0 1 0"/>
			</filter>
		</defs>
		<mask maskUnits="userSpaceOnUse" x="121.61" y="112.87" width="3.97" height="2.31" id="f_16_">
			<g filter="url(#Adobe_OpacityMaskFilter_17_)">
				<path id="e_16_" fill-rule="evenodd" clip-rule="evenodd" fill="#FFFFFF" d="M0,134h152.59V0.19H0V134z"/>
			</g>
		</mask>
		<path mask="url(#f_16_)" fill-rule="evenodd" clip-rule="evenodd" fill="#F2F2F2" d="M121.61,115.18h3.97v-2.31h-3.97V115.18z"/>
		<defs>
			<filter id="Adobe_OpacityMaskFilter_18_" filterUnits="userSpaceOnUse" x="124.33" y="112.87" width="1.25" height="2.31">
				<feColorMatrix  type="matrix" values="1 0 0 0 0  0 1 0 0 0  0 0 1 0 0  0 0 0 1 0"/>
			</filter>
		</defs>
		<mask maskUnits="userSpaceOnUse" x="124.33" y="112.87" width="1.25" height="2.31" id="f_17_">
			<g filter="url(#Adobe_OpacityMaskFilter_18_)">
				<path id="e_17_" fill-rule="evenodd" clip-rule="evenodd" fill="#FFFFFF" d="M0,134h152.59V0.19H0V134z"/>
			</g>
		</mask>
		<path mask="url(#f_17_)" fill-rule="evenodd" clip-rule="evenodd" fill="#CCCBCA" d="M124.33,115.18h1.25v-2.31h-1.25V115.18z"/>
		<defs>
			<filter id="Adobe_OpacityMaskFilter_19_" filterUnits="userSpaceOnUse" x="121.61" y="115.18" width="3.97" height="4.48">
				<feColorMatrix  type="matrix" values="1 0 0 0 0  0 1 0 0 0  0 0 1 0 0  0 0 0 1 0"/>
			</filter>
		</defs>
		<mask maskUnits="userSpaceOnUse" x="121.61" y="115.18" width="3.97" height="4.48" id="f_18_">
			<g filter="url(#Adobe_OpacityMaskFilter_19_)">
				<path id="e_18_" fill-rule="evenodd" clip-rule="evenodd" fill="#FFFFFF" d="M0,134h152.59V0.19H0V134z"/>
			</g>
		</mask>
		<path mask="url(#f_18_)" fill-rule="evenodd" clip-rule="evenodd" fill="#C6DEF4" d="M125.58,117.67c0,0.51-0.19,1.02-0.58,1.41
			c-0.77,0.78-2.03,0.78-2.8,0.01c0,0,0,0-0.01-0.01c-0.37-0.37-0.58-0.88-0.58-1.41v-2.49h3.97L125.58,117.67L125.58,117.67z"/>
		<defs>
			<filter id="Adobe_OpacityMaskFilter_20_" filterUnits="userSpaceOnUse" x="121.72" y="115.18" width="3.86" height="4.48">
				<feColorMatrix  type="matrix" values="1 0 0 0 0  0 1 0 0 0  0 0 1 0 0  0 0 0 1 0"/>
			</filter>
		</defs>
		<mask maskUnits="userSpaceOnUse" x="121.72" y="115.18" width="3.86" height="4.48" id="f_19_">
			<g filter="url(#Adobe_OpacityMaskFilter_20_)">
				<path id="e_19_" fill-rule="evenodd" clip-rule="evenodd" fill="#FFFFFF" d="M0,134h152.59V0.19H0V134z"/>
			</g>
		</mask>
		<path mask="url(#f_19_)" fill-rule="evenodd" clip-rule="evenodd" fill="#CEE2F4" d="M122.19,119.08
			c-0.22-0.22-0.38-0.49-0.47-0.78c0.21,0.07,0.42,0.11,0.63,0.11c1.1,0,1.99-0.89,1.99-1.98c0,0,0,0,0-0.01v-1.24h1.25v2.49
			c0,0.51-0.19,1.02-0.58,1.41C124.23,119.85,122.97,119.85,122.19,119.08C122.19,119.08,122.19,119.08,122.19,119.08"/>
	</g>
	<circle fill-rule="evenodd" clip-rule="evenodd" fill="#F7F7FF" cx="95" cy="159" r="13"/>
</g>
</svg>
