<svg xmlns="http://www.w3.org/2000/svg" xmlns:xlink="http://www.w3.org/1999/xlink" width="210" height="172" viewBox="0 0 210 172">
    <defs>
        <path id="a" d="M0 .185h132.817V134H0z"/>
        <path id="c" d="M66.408.184C29.73.184 0 30.114 0 67.034c0 36.922 29.73 66.85 66.408 66.85 36.679 0 66.409-29.928 66.409-66.85 0-36.92-29.73-66.85-66.409-66.85z"/>
        <path id="e" d="M0 134h152.588V.185H0z"/>
    </defs>
    <g fill="none" fill-rule="evenodd">
        <path stroke="#DEDEE3" stroke-dasharray="6,8" d="M60 165c33.137 0 60-26.863 60-60S93.137 45 60 45 0 71.863 0 105s26.863 60 60 60z"/>
        <path stroke="#DEDEE3" stroke-dasharray="6,8" d="M150 123c33.137 0 60-26.863 60-60S183.137 3 150 3 90 29.863 90 63s26.863 60 60 60z"/>
        <g transform="translate(28.926 19)">
            <mask id="b" fill="#fff">
                <use xlink:href="#a"/>
            </mask>
            <path fill="#C6DEF4" d="M132.817 67.092c0 36.952-29.733 66.908-66.409 66.908S0 104.044 0 67.092 29.732.185 66.408.185s66.409 29.955 66.409 66.907" mask="url(#b)"/>
        </g>
        <g transform="translate(28.926 19)">
            <mask id="d" fill="#fff">
                <use xlink:href="#c"/>
            </mask>
            <path fill="#FFF" d="M97.997 84.89h53.72V39.43h-53.72z" mask="url(#d)"/>
        </g>
        <g transform="translate(28.926 19)">
            <path fill="#D9D8D7" d="M6.387 67.092v45.273a3.93 3.93 0 0 0 1.151 2.784 3.91 3.91 0 0 0 2.775 1.153h75.893a3.913 3.913 0 0 0 2.773-1.153 3.937 3.937 0 0 0 1.149-2.784V67.092H6.388z"/>
            <path fill="#FFF" d="M58.657 112.9c0 .175-.14.317-.315.317h-20.17a.312.312 0 0 1-.311-.317v-11.995c0-.174.136-.318.311-.318h20.17c.176 0 .315.144.315.318V112.9zM15.602 75.983a.248.248 0 0 1-.247.248h-3.74a.242.242 0 0 1-.236-.248v-3.741a.24.24 0 0 1 .236-.245h3.74c.135 0 .247.107.247.245v3.741zM23.341 81.138a.24.24 0 0 1-.238.247h-3.737a.247.247 0 0 1-.248-.247v-3.745a.25.25 0 0 1 .248-.242h3.737c.133 0 .238.114.238.242v3.745zM24.564 86.3a.243.243 0 0 1-.24.242h-3.736c-.139 0-.25-.11-.25-.243v-3.747c0-.134.111-.244.25-.244h3.736c.131 0 .24.11.24.244V86.3zM22.05 91.453c0 .134-.111.245-.25.245h-3.74a.243.243 0 0 1-.237-.245v-3.745c0-.136.108-.244.238-.244H21.8c.139 0 .25.108.25.244v3.745zM15.602 97.258a.246.246 0 0 1-.247.246h-3.74a.24.24 0 0 1-.236-.246v-4.397c0-.132.107-.244.236-.244h3.74c.135 0 .247.112.247.244v4.397zM20.73 97.258a.242.242 0 0 1-.24.246h-3.735a.243.243 0 0 1-.249-.246v-4.397c0-.132.109-.244.249-.244h3.735c.132 0 .24.112.24.244v4.397zM25.87 97.258a.25.25 0 0 1-.25.246h-3.736a.242.242 0 0 1-.24-.246v-4.397c0-.132.108-.244.24-.244h3.736c.132 0 .25.112.25.244v4.397zM69.708 97.258a.25.25 0 0 1-.25.246h-3.737a.248.248 0 0 1-.246-.246v-4.397a.25.25 0 0 1 .246-.244h3.738c.13 0 .25.112.25.244v4.397zM74.847 97.258a.239.239 0 0 1-.237.246h-3.735a.244.244 0 0 1-.251-.246v-1.953c0-.136.107-.243.251-.243h3.735c.132 0 .237.107.237.243v1.953zM85.136 97.258a.24.24 0 0 1-.237.246h-3.737a.25.25 0 0 1-.249-.246v-1.953a.25.25 0 0 1 .25-.243h3.736c.131 0 .237.107.237.243v1.953zM32.336 97.258a.24.24 0 0 1-.236.246H27.02a.243.243 0 0 1-.247-.246v-4.397c0-.132.11-.244.247-.244H32.1c.128 0 .236.112.236.244v4.397zM64.559 97.258a.243.243 0 0 1-.249.246h-5.079a.246.246 0 0 1-.242-.246v-4.397c0-.132.114-.244.242-.244h5.08c.14 0 .248.112.248.244v4.397zM58.068 97.258a.242.242 0 0 1-.24.246H33.5a.243.243 0 0 1-.24-.246v-4.397c0-.132.11-.244.24-.244h24.327c.131 0 .24.112.24.244v4.397zM27.186 91.453a.242.242 0 0 1-.236.245H23.21a.252.252 0 0 1-.247-.245v-3.745c0-.136.118-.244.247-.244h3.739a.24.24 0 0 1 .236.244v3.745zM32.336 91.453a.243.243 0 0 1-.236.245h-3.738a.246.246 0 0 1-.249-.245v-3.745c0-.136.109-.244.249-.244H32.1a.24.24 0 0 1 .236.244v3.745zM37.488 91.453a.246.246 0 0 1-.25.245H33.5c-.13 0-.24-.11-.24-.245v-3.745c0-.136.11-.244.24-.244h3.736c.142 0 .251.108.251.244v3.745zM42.627 91.453a.244.244 0 0 1-.239.245h-3.737a.248.248 0 0 1-.248-.245v-3.745c0-.136.113-.244.248-.244h3.737c.13 0 .239.108.239.244v3.745zM47.777 91.453c0 .134-.109.245-.248.245h-3.73a.247.247 0 0 1-.247-.245v-3.745c0-.136.11-.244.247-.244h3.73c.139 0 .248.108.248.244v3.745zM52.926 91.453a.243.243 0 0 1-.245.245h-3.74a.244.244 0 0 1-.24-.245v-3.745c0-.136.108-.244.24-.244h3.74c.14 0 .245.108.245.244v3.745zM58.068 91.453a.244.244 0 0 1-.24.245h-3.74a.245.245 0 0 1-.245-.245v-3.745c0-.136.11-.244.245-.244h3.74c.131 0 .24.108.24.244v3.745zM63.217 91.453c0 .134-.11.245-.247.245h-3.74a.248.248 0 0 1-.241-.245v-3.745c0-.136.114-.244.242-.244h3.739c.138 0 .247.108.247.244v3.745zM68.366 91.453a.25.25 0 0 1-.245.245h-3.74a.245.245 0 0 1-.242-.245v-3.745c0-.136.11-.244.242-.244h3.74c.13 0 .245.108.245.244v3.745zM73.509 91.453c0 .134-.11.245-.241.245h-3.736c-.14 0-.25-.11-.25-.245v-3.745c0-.136.11-.244.25-.244h3.736c.13 0 .24.108.24.244v3.745zM85.136 91.453a.241.241 0 0 1-.234.245H74.717a.244.244 0 0 1-.246-.245v-3.745c0-.136.106-.244.246-.244h10.185c.128 0 .234.108.234.244v3.745zM29.714 86.3a.242.242 0 0 1-.247.242h-3.74a.242.242 0 0 1-.239-.243v-3.747c0-.134.108-.244.239-.244h3.74c.141 0 .247.11.247.244V86.3zM34.853 86.3a.242.242 0 0 1-.24.242h-3.736a.245.245 0 0 1-.246-.243v-3.747c0-.134.11-.244.246-.244h3.737c.132 0 .24.11.24.244V86.3zM40.003 86.3a.243.243 0 0 1-.246.242h-3.74a.243.243 0 0 1-.237-.243v-3.747c0-.134.109-.244.238-.244h3.739c.139 0 .246.11.246.244V86.3zM45.154 86.3c0 .132-.12.242-.247.242h-3.74a.243.243 0 0 1-.239-.243v-3.747c0-.134.108-.244.239-.244h3.74c.127 0 .247.11.247.244V86.3zM50.296 86.3c0 .132-.111.242-.24.242h-3.738a.247.247 0 0 1-.25-.243v-3.747c0-.134.112-.244.25-.244h3.739c.128 0 .239.11.239.244V86.3zM55.441 86.3a.243.243 0 0 1-.246.242h-3.739a.242.242 0 0 1-.237-.243v-3.747c0-.134.109-.244.237-.244h3.74c.138 0 .245.11.245.244V86.3zM60.59 86.3a.248.248 0 0 1-.244.242h-3.738a.25.25 0 0 1-.247-.243v-3.747a.25.25 0 0 1 .247-.244h3.738c.13 0 .244.11.244.244V86.3zM65.733 86.3a.243.243 0 0 1-.239.242h-3.737a.245.245 0 0 1-.248-.243v-3.747c0-.134.109-.244.248-.244h3.737c.131 0 .24.11.24.244V86.3zM70.883 86.3a.244.244 0 0 1-.248.242h-3.737a.242.242 0 0 1-.24-.243v-3.747c0-.134.107-.244.24-.244h3.737c.14 0 .248.11.248.244V86.3zM76.024 86.3c0 .132-.11.242-.239.242h-3.737a.251.251 0 0 1-.25-.243v-3.747c0-.134.119-.244.25-.244h3.737c.13 0 .24.11.24.244V86.3zM81.173 86.3c0 .132-.11.242-.24.242h-3.738a.241.241 0 0 1-.245-.243v-3.747c0-.134.104-.244.245-.244h3.739c.13 0 .24.11.24.244V86.3zM28.494 81.138c0 .14-.11.247-.244.247h-3.742a.246.246 0 0 1-.243-.247v-3.745c0-.128.112-.242.243-.242h3.742c.134 0 .244.114.244.242v3.745zM33.643 81.138a.25.25 0 0 1-.25.247h-3.736a.242.242 0 0 1-.24-.247v-3.745c0-.128.108-.242.24-.242h3.736c.134 0 .25.114.25.242v3.745zM38.783 81.138c0 .14-.11.247-.24.247h-3.737a.245.245 0 0 1-.248-.247v-3.745c0-.128.11-.242.248-.242h3.737c.13 0 .24.114.24.242v3.745zM43.93 81.138a.243.243 0 0 1-.245.247h-3.739a.242.242 0 0 1-.24-.247v-3.745c0-.128.107-.242.24-.242h3.74c.136 0 .244.114.244.242v3.745zM49.083 81.138a.251.251 0 0 1-.251.247h-3.737a.244.244 0 0 1-.24-.247v-3.745c0-.128.111-.242.24-.242h3.737c.133 0 .251.114.251.242v3.745zM54.22 81.138a.24.24 0 0 1-.237.247h-3.74a.245.245 0 0 1-.247-.247v-3.745c0-.128.11-.242.247-.242h3.74c.131 0 .236.114.236.242v3.745zM59.37 81.138a.242.242 0 0 1-.246.247h-3.738a.241.241 0 0 1-.239-.247v-3.745c0-.128.107-.242.24-.242h3.737c.142 0 .247.114.247.242v3.745zM64.523 81.138a.251.251 0 0 1-.25.247h-3.737a.248.248 0 0 1-.247-.247v-3.745c0-.128.115-.242.247-.242h3.736c.133 0 .251.114.251.242v3.745zM69.66 81.138a.24.24 0 0 1-.235.247h-3.74a.243.243 0 0 1-.248-.247v-3.745c0-.128.107-.242.247-.242h3.741c.128 0 .235.114.235.242v3.745zM74.81 81.138a.244.244 0 0 1-.246.247h-3.739a.241.241 0 0 1-.237-.247v-3.745c0-.128.108-.242.237-.242h3.739c.138 0 .247.114.247.242v3.745zM79.95 81.138a.24.24 0 0 1-.236.247h-3.74a.25.25 0 0 1-.246-.247v-3.745c0-.128.118-.242.246-.242h3.74c.131 0 .237.114.237.242v3.745zM18.203 81.138a.244.244 0 0 1-.25.247h-6.338a.241.241 0 0 1-.236-.247v-3.745c0-.128.107-.242.236-.242h6.338c.143 0 .25.114.25.242v3.745zM85.136 75.983a.243.243 0 0 1-.237.248h-6.342a.244.244 0 0 1-.244-.248v-3.741c0-.138.109-.245.244-.245H84.9a.24.24 0 0 1 .237.245v3.741zM19.416 86.3a.244.244 0 0 1-.243.242h-7.558a.241.241 0 0 1-.236-.243v-3.747c0-.134.107-.244.236-.244h7.558c.134 0 .243.11.243.244V86.3zM16.9 91.453c0 .134-.11.245-.238.245h-5.047a.242.242 0 0 1-.236-.245v-3.745a.24.24 0 0 1 .236-.244h5.047c.127 0 .237.108.237.244v3.745zM20.743 75.983a.242.242 0 0 1-.24.248h-3.735a.245.245 0 0 1-.248-.248v-3.741c0-.138.107-.245.248-.245h3.735a.24.24 0 0 1 .24.245v3.741zM25.892 75.983a.245.245 0 0 1-.25.248h-3.735a.241.241 0 0 1-.236-.248v-3.741c0-.138.106-.245.236-.245h3.735c.143 0 .25.107.25.245v3.741zM31.046 75.983c0 .138-.12.248-.253.248h-3.736a.25.25 0 0 1-.246-.248v-3.741c0-.138.115-.245.246-.245h3.736c.132 0 .253.107.253.245v3.741zM36.185 75.983c0 .138-.11.248-.241.248h-3.738c-.14 0-.25-.11-.25-.248v-3.741c0-.138.11-.245.25-.245h3.738c.132 0 .24.107.24.245v3.741zM41.33 75.983a.242.242 0 0 1-.246.248h-3.74a.245.245 0 0 1-.238-.248v-3.741c0-.138.11-.245.239-.245h3.74a.24.24 0 0 1 .245.245v3.741zM46.475 75.983c0 .138-.11.248-.243.248h-3.733a.252.252 0 0 1-.25-.248v-3.741a.25.25 0 0 1 .25-.245h3.733c.133 0 .243.107.243.245v3.741zM51.621 75.983a.242.242 0 0 1-.237.248h-3.736a.244.244 0 0 1-.25-.248v-3.741c0-.138.107-.245.25-.245h3.736a.24.24 0 0 1 .237.245v3.741zM56.772 75.983c0 .138-.11.248-.25.248h-3.736a.243.243 0 0 1-.24-.248v-3.741c0-.138.107-.245.24-.245h3.736c.14 0 .25.107.25.245v3.741zM61.912 75.983a.242.242 0 0 1-.237.248h-3.738a.249.249 0 0 1-.25-.248v-3.741c0-.138.113-.245.25-.245h3.738a.24.24 0 0 1 .237.245v3.741zM67.063 75.983a.244.244 0 0 1-.245.248h-3.742a.245.245 0 0 1-.238-.248v-3.741c0-.138.11-.245.238-.245h3.742c.138 0 .245.107.245.245v3.741zM72.215 75.983c0 .138-.12.248-.251.248h-3.738a.242.242 0 0 1-.239-.248v-3.741a.24.24 0 0 1 .239-.245h3.738c.13 0 .25.107.25.245v3.741zM77.353 75.983a.243.243 0 0 1-.238.248h-3.74a.245.245 0 0 1-.246-.248v-3.741c0-.138.107-.245.246-.245h3.74a.24.24 0 0 1 .238.245v3.741zM75.773 95.198v2.06c0 .064.019.124.073.171.044.049.11.075.166.075h3.739a.24.24 0 0 0 .174-.075.221.221 0 0 0 .072-.17v-2.061h-4.224zM79.997 94.922V92.86a.223.223 0 0 0-.072-.168.242.242 0 0 0-.174-.076h-3.74a.238.238 0 0 0-.165.076.218.218 0 0 0-.073.168v2.06h4.224zM81.16 77.151a.24.24 0 0 0-.175.075.268.268 0 0 0-.072.167v3.745c0 .066.032.13.072.177.054.046.11.07.175.07h.975V86.3c0 .062.02.124.072.168.044.05.11.075.177.075h2.515a.246.246 0 0 0 .175-.075.245.245 0 0 0 .062-.168v-8.906c0-.06-.02-.12-.062-.167a.239.239 0 0 0-.175-.075H81.16z"/>
            <path fill="#232E38" d="M10.313 17.883a3.934 3.934 0 0 0-3.926 3.937v45.272h83.74V21.82a3.941 3.941 0 0 0-1.148-2.785 3.912 3.912 0 0 0-2.773-1.152H10.313z"/>
            <path fill="#474F59" d="M49.2 20.063a.947.947 0 0 1-.94.948.947.947 0 0 1-.943-.948c0-.525.423-.937.943-.937.514 0 .94.412.94.937"/>
            <path fill="#FFF" d="M48.642 20.063a.386.386 0 0 1-.382.387.384.384 0 1 1 .382-.387"/>
            <mask id="f" fill="#fff">
                <use xlink:href="#e"/>
            </mask>
            <path fill="#474F59" d="M82.392 68.863h5.498v-3.544h-5.498z" mask="url(#f)"/>
            <path fill="#232E38" d="M82.392 68.863h5.498V67.09h-5.498z" mask="url(#f)"/>
            <path fill="#474F59" d="M8.624 68.863h5.499v-3.544h-5.5z" mask="url(#f)"/>
            <path fill="#232E38" d="M8.624 68.863h5.499V67.09h-5.5z" mask="url(#f)"/>
            <path fill="#FFF" d="M11.379 62.185h73.757V22.789H11.379z" mask="url(#f)"/>
            <path fill="#E6E5E5" d="M16.167 27.278h3.271v-1.195h-3.271zM16.167 35.14h3.271v-1.195h-3.271zM20.282 27.278H35.69v-1.195H20.282zM20.282 35.14H32.08v-1.195h-11.8zM19.438 30.266h5.194v-1.195h-5.194zM19.438 44.102h5.194v-1.196h-5.194zM25.863 44.102h13.59v-1.196h-13.59zM22.376 52.918h4.28v-1.195h-4.28zM52.15 58.891h5.576v-1.195H52.15zM40.99 44.102h9.774v-1.196H40.99zM52.754 44.102h5.983v-1.196h-5.983zM19.438 38.13h7.757v-1.195h-7.757zM19.438 41.117h10.999v-1.196H19.438zM22.376 55.906h12.608V54.71H22.376zM22.376 58.891H33.96v-1.195H22.376zM37.71 58.891h12.011v-1.195h-12.01zM16.167 52.918h4.456v-1.195h-4.456zM31.612 41.117h11.002v-1.196H31.612zM54.216 41.117h6.425v-1.196h-6.425zM43.372 41.117h6.873v-1.196h-6.873zM29.732 38.13h11.911v-1.195H29.732zM27.878 30.266h4.78v-1.195h-4.78z" mask="url(#f)"/>
            <path fill="#FFF" d="M115.852 124.803c0 3.495-2.853 6.353-6.34 6.353h-4.613c-3.487 0-6.34-2.858-6.34-6.353v-18.175c0-3.497 2.853-6.352 6.34-6.352h4.612c3.488 0 6.34 2.855 6.34 6.352v18.175z" mask="url(#f)"/>
            <path fill="#E6E5E5" d="M112.932 101.29c.062.361.101.727.101 1.104v13.786c0 2.75-1.046 5.498-3.14 7.595a10.674 10.674 0 0 1-7.583 3.15h-.229a6.29 6.29 0 0 1-3.42-1.02c.527 2.974 3.127 5.251 6.238 5.251h4.612c3.488 0 6.34-2.858 6.34-6.353v-18.175c0-2.236-1.17-4.203-2.92-5.337" mask="url(#f)"/>
            <path fill="#232E38" d="M108.644 106.92a1.44 1.44 0 1 1-2.878 0 1.44 1.44 0 0 1 1.438-1.448c.797 0 1.44.645 1.44 1.447" mask="url(#f)"/>
            <path fill="#F2F2F2" d="M125.58 66.142l-1.986-6.536-1.986 6.536z" mask="url(#f)"/>
            <path fill="#CCCBCA" d="M123.594 59.606l1.985 6.536h-1.248z" mask="url(#f)"/>
            <path fill="#474F59" d="M121.608 112.874h3.971V66.142h-3.971z" mask="url(#f)"/>
            <path fill="#232E38" d="M124.33 112.874h1.25V66.142h-1.25z" mask="url(#f)"/>
            <path fill="#353F49" d="M124.37 62.164l-.776-2.558-.782 2.558z" mask="url(#f)"/>
            <path fill="#232E38" d="M124.37 62.164l-.776-2.558.288 2.558z" mask="url(#f)"/>
            <path fill="#F2F2F2" d="M121.608 115.183h3.971v-2.309h-3.971z" mask="url(#f)"/>
            <path fill="#CCCBCA" d="M124.33 115.183h1.25v-2.309h-1.25z" mask="url(#f)"/>
            <path fill="#C6DEF4" d="M125.58 117.67c0 .508-.194 1.018-.583 1.406a1.98 1.98 0 0 1-2.807 0 1.983 1.983 0 0 1-.582-1.407v-2.486h3.971v2.486z" mask="url(#f)"/>
            <path fill="#CEE2F4" d="M122.19 119.076a1.976 1.976 0 0 1-.474-.778c.206.067.415.11.629.11a1.985 1.985 0 0 0 1.986-1.99v-1.235h1.248v2.486c0 .51-.193 1.02-.582 1.407a1.98 1.98 0 0 1-2.807 0" mask="url(#f)"/>
        </g>
        <circle cx="105.5" cy="24.5" r="10.5" fill="#FFF" stroke="#979797"/>
        <circle cx="95" cy="159" r="13" fill="#F7F7FF"/>
    </g>
</svg>
