<svg xmlns="http://www.w3.org/2000/svg" xmlns:xlink="http://www.w3.org/1999/xlink" width="210" height="172" viewBox="0 0 210 172">
    <defs>
        <path id="a" d="M0 134h133.656V.344H0z"/>
        <path id="c" d="M.023.082h56.525v38.66H.023z"/>
    </defs>
    <g fill="none" fill-rule="evenodd">
        <path stroke="#DEDEE3" stroke-dasharray="6,8" d="M150 136c33.137 0 60-26.863 60-60s-26.863-60-60-60-60 26.863-60 60 26.863 60 60 60z"/>
        <path stroke="#DEDEE3" stroke-dasharray="6,8" d="M60 146c33.137 0 60-26.863 60-60S93.137 26 60 26 0 52.863 0 86s26.863 60 60 60z"/>
        <g transform="translate(38 19)">
            <path fill="#C6DEF4" d="M133.656 67.172c0 36.908-29.92 66.828-66.828 66.828S0 104.08 0 67.172C0 30.263 29.92.344 66.828.344s66.828 29.92 66.828 66.828"/>
            <path fill="#353F49" d="M48.098 121.859c-3.546 0-6.452-2.893-6.452-6.446V35.758c0-3.55 2.906-6.457 6.452-6.457H85.56c3.547 0 6.45 2.907 6.45 6.457v79.655c0 3.553-2.903 6.446-6.45 6.446H48.098z"/>
            <path fill="#474F59" d="M72.41 115.19c0 .855-.682 1.544-1.538 1.544h-8.09a1.548 1.548 0 0 1-1.54-1.543v-.644c0-.844.7-1.545 1.54-1.545h8.09c.856 0 1.538.701 1.538 1.545v.644zM68.698 36.291c0 1.026-.827 1.86-1.859 1.86a1.859 1.859 0 1 1 0-3.717c1.032 0 1.859.838 1.859 1.857"/>
            <path fill="#FFF" d="M67.7 36.291c0 .489-.373.882-.86.882a.884.884 0 0 1-.883-.882c0-.476.4-.876.882-.876.488 0 .86.4.86.876"/>
            <mask id="b" fill="#fff">
                <use xlink:href="#a"/>
            </mask>
            <path fill="#FFF" d="M45.3 107.875h43.058V43.297H45.299z" mask="url(#b)"/>
        </g>
        <g transform="translate(83 78)">
            <mask id="d" fill="#fff">
                <use xlink:href="#c"/>
            </mask>
            <path fill="#C6DEF4" d="M-11.072 38.741h67.62V.081h-67.62z" mask="url(#d)"/>
            <path fill="#FFF" d="M-9.034 36.747h63.545V2.087H-9.034z" mask="url(#d)"/>
            <path fill="#C6DEF4" d="M-6.924 34.665H52.4V4.17H-6.924z" mask="url(#d)"/>
            <path fill="#FFF" d="M10.864 19.415c0-6.475 5.314-11.721 11.877-11.721 6.554 0 11.872 5.246 11.872 11.721 0 6.468-5.318 11.716-11.872 11.716-6.563 0-11.877-5.248-11.877-11.716" mask="url(#d)"/>
            <path fill="#C6DEF4" d="M21.544 18.679h2.39c.941 0 1.83.357 2.497 1.014a3.45 3.45 0 0 1 1.035 2.471c0 .93-.365 1.804-1.035 2.464a3.546 3.546 0 0 1-2.497 1.017H19.5a.742.742 0 0 1-.747-.732c0-.408.337-.738.747-.738h4.435c.543 0 1.054-.207 1.442-.591.389-.385.596-.883.596-1.42 0-.54-.207-1.045-.596-1.427-.388-.38-.9-.588-1.442-.588h-2.39a.742.742 0 0 1-.748-.734.74.74 0 0 1 .748-.736" mask="url(#d)"/>
            <path fill="#C6DEF4" d="M21.544 13.171h4.428c.415 0 .746.334.746.737a.74.74 0 0 1-.746.739h-4.428c-.545 0-1.062.21-1.445.592-.387.377-.6.883-.6 1.417 0 .548.213 1.051.6 1.428.383.382.9.595 1.445.595h2.39a.74.74 0 0 1 .747.736.743.743 0 0 1-.747.734h-2.39a3.543 3.543 0 0 1-2.5-1.02 3.456 3.456 0 0 1-1.035-2.473 3.43 3.43 0 0 1 1.035-2.462 3.52 3.52 0 0 1 2.5-1.023" mask="url(#d)"/>
            <path fill="#C6DEF4" d="M22.74 11.601c.407 0 .744.332.744.738v14.145a.746.746 0 0 1-1.49 0V12.34c0-.406.332-.738.747-.738" mask="url(#d)"/>
            <path fill="#FFF" d="M54.51 11.588V2.087h-9.633c.853 4.854 4.714 8.662 9.634 9.501M-9.034 27.233v9.514H.598c-.851-4.862-4.712-8.67-9.632-9.514M-9.034 11.588C-4.116 10.75-.26 6.941.598 2.087h-9.632v9.501zM44.878 36.747h9.633v-9.514c-4.92.844-8.783 4.652-9.633 9.514" mask="url(#d)"/>
        </g>
        <path fill="#F2F2F2" d="M102.867 57.298h51.755v-32.88h-51.755z"/>
        <path fill="#C6DEF4" d="M106.967 53.184h43.554V28.529h-43.554z"/>
        <path fill="#FFF" d="M106.952 53.184l21.791-15.202 21.794 15.202z"/>
        <path fill="#D9D8D7" d="M106.952 28.529l21.791 17.78 21.794-17.78z"/>
        <path fill="#FFF" d="M106.952 28.529l21.791 15.202 21.794-15.202z"/>
        <path fill="#F2F2F2" d="M150.537 65.743l-8.402-8.445h8.402z"/>
        <path fill="#FFF" d="M46.252 93.302h26.75V76.308h-26.75zM70.89 97.67l-4.344-4.368h4.344z"/>
        <path fill="#CCCBCA" d="M54.721 84.479c-.29-.154-.738-.308-1.344-.452-.612-.141-.995-.28-1.154-.414a.48.48 0 0 1-.183-.38c0-.16.062-.289.198-.386.206-.149.49-.223.851-.223.353 0 .62.07.794.21.178.139.292.371.345.69l1.25-.057c-.02-.572-.228-1.03-.62-1.37-.392-.341-.98-.515-1.754-.515-.479 0-.883.07-1.22.215a1.708 1.708 0 0 0-.772.632 1.615 1.615 0 0 0-.266.89c0 .494.188.912.567 1.254.27.245.74.448 1.41.618.521.128.856.22 1.001.27.215.075.367.166.452.268a.573.573 0 0 1 .128.379c0 .23-.104.429-.305.601-.204.17-.51.256-.912.256-.38 0-.681-.094-.907-.287-.22-.192-.371-.495-.444-.907l-1.216.12c.08.697.332 1.229.752 1.59.421.365 1.02.548 1.8.548.54 0 .989-.076 1.35-.23.36-.151.64-.382.836-.693a1.84 1.84 0 0 0 .295-1.004c0-.394-.08-.725-.244-.992a1.72 1.72 0 0 0-.688-.631M59.685 85.936l-1.122-4.25h-1.872v6.232h1.16v-4.904l1.227 4.904h1.2l1.234-4.904v4.904h1.16v-6.231h-1.878zM68.387 85.11a1.737 1.737 0 0 0-.684-.63c-.294-.155-.742-.31-1.351-.454-.607-.14-.992-.28-1.149-.413a.477.477 0 0 1-.186-.38c0-.159.065-.289.2-.386.202-.15.489-.223.851-.223.354 0 .617.07.794.21.175.138.291.371.344.69l1.251-.058c-.018-.571-.226-1.03-.619-1.369-.394-.342-.979-.515-1.755-.515-.477 0-.882.071-1.218.215a1.69 1.69 0 0 0-.774.632c-.178.275-.27.573-.27.89 0 .494.188.913.572 1.254.268.245.739.448 1.411.618.522.128.853.22 1 .27.215.074.364.166.453.268.08.105.127.23.127.38 0 .228-.103.428-.305.6-.203.17-.508.256-.913.256-.38 0-.682-.094-.906-.287-.222-.192-.371-.495-.446-.907l-1.214.12c.079.697.332 1.229.749 1.59.419.366 1.024.547 1.804.547.54 0 .99-.075 1.35-.23.358-.15.638-.381.837-.692a1.87 1.87 0 0 0 .294-1.004c0-.394-.082-.725-.247-.992"/>
        <circle cx="105.5" cy="24.5" r="10.5" fill="#FFF" stroke="#979797"/>
        <circle cx="18.5" cy="45.5" r="9.5" fill="#F7F7FF"/>
        <circle cx="170.5" cy="126.5" r="9.5" fill="#F7F7FF"/>
    </g>
</svg>
