<?xml version="1.0" encoding="utf-8"?>
<!-- Generator: Adobe Illustrator 23.0.6, SVG Export Plug-In . SVG Version: 6.00 Build 0)  -->
<svg version="1.0" id="Layer_1" xmlns="http://www.w3.org/2000/svg" xmlns:xlink="http://www.w3.org/1999/xlink" x="0px" y="0px"
	 width="210px" height="172px" viewBox="0 0 210 172" enable-background="new 0 0 210 172" xml:space="preserve">
<g>
	<path fill="none" stroke="#DEDEE3" stroke-dasharray="6,8" d="M150,136c33.14,0,60-26.86,60-60s-26.86-60-60-60S90,42.86,90,76
		S116.86,136,150,136z"/>
	<path fill="none" stroke="#DEDEE3" stroke-dasharray="6,8" d="M60,146c33.14,0,60-26.86,60-60S93.14,26,60,26S0,52.86,0,86
		S26.86,146,60,146z"/>
	<g transform="translate(38 19)">
		<path fill-rule="evenodd" clip-rule="evenodd" fill="#C6DEF4" d="M133.66,67.17c0,36.91-29.92,66.83-66.83,66.83S0,104.08,0,67.17
			C0,30.26,29.92,0.34,66.83,0.34S133.66,30.26,133.66,67.17"/>
		<path fill-rule="evenodd" clip-rule="evenodd" fill="#353F49" d="M48.1,121.86c-3.55,0-6.45-2.89-6.45-6.45V35.76
			c0-3.55,2.91-6.46,6.45-6.46h37.46c3.55,0,6.45,2.91,6.45,6.46v79.65c0,3.55-2.9,6.45-6.45,6.45
			C85.56,121.86,48.1,121.86,48.1,121.86z"/>
		<path fill-rule="evenodd" clip-rule="evenodd" fill="#474F59" d="M72.41,115.19c0,0.86-0.68,1.54-1.54,1.54h-8.09
			c-0.85,0-1.54-0.69-1.54-1.54v-0.64c0-0.84,0.7-1.54,1.54-1.54h8.09c0.86,0,1.54,0.7,1.54,1.54V115.19L72.41,115.19z M68.7,36.29
			c0,1.03-0.83,1.86-1.86,1.86c-1.03,0.02-1.88-0.79-1.9-1.82c-0.02-1.03,0.79-1.88,1.82-1.9c0.03,0,0.06,0,0.09,0
			C67.87,34.43,68.7,35.27,68.7,36.29"/>
		<path fill-rule="evenodd" clip-rule="evenodd" fill="#FFFFFF" d="M67.7,36.29c0,0.49-0.37,0.88-0.86,0.88
			c-0.49,0-0.88-0.39-0.88-0.88c0-0.48,0.4-0.88,0.88-0.88C67.33,35.42,67.7,35.82,67.7,36.29"/>
		<defs>
			<filter id="Adobe_OpacityMaskFilter" filterUnits="userSpaceOnUse" x="45.3" y="43.3" width="43.06" height="64.58">
				<feColorMatrix  type="matrix" values="1 0 0 0 0  0 1 0 0 0  0 0 1 0 0  0 0 0 1 0"/>
			</filter>
		</defs>
		<mask maskUnits="userSpaceOnUse" x="45.3" y="43.3" width="43.06" height="64.58" id="b_1_">
			<g filter="url(#Adobe_OpacityMaskFilter)">
				<path id="a_1_" fill-rule="evenodd" clip-rule="evenodd" fill="#FFFFFF" d="M0,134h133.66V0.34H0V134z"/>
			</g>
		</mask>
		<path mask="url(#b_1_)" fill-rule="evenodd" clip-rule="evenodd" fill="#FFFFFF" d="M45.3,107.88h43.06V43.3H45.3L45.3,107.88z"/>
	</g>
	<g transform="translate(83 78)">
		<defs>
			<filter id="Adobe_OpacityMaskFilter_1_" filterUnits="userSpaceOnUse" x="-11.07" y="0.08" width="67.62" height="38.66">
				<feColorMatrix  type="matrix" values="1 0 0 0 0  0 1 0 0 0  0 0 1 0 0  0 0 0 1 0"/>
			</filter>
		</defs>
		<mask maskUnits="userSpaceOnUse" x="-11.07" y="0.08" width="67.62" height="38.66" id="d_1_">
			<g filter="url(#Adobe_OpacityMaskFilter_1_)">
				<path id="c_1_" fill-rule="evenodd" clip-rule="evenodd" fill="#FFFFFF" d="M0.02,0.08h56.53v38.66H0.02V0.08z"/>
			</g>
		</mask>
		<path mask="url(#d_1_)" fill-rule="evenodd" clip-rule="evenodd" fill="#C6DEF4" d="M-11.07,38.74h67.62V0.08h-67.62L-11.07,38.74
			z"/>
		<defs>
			<filter id="Adobe_OpacityMaskFilter_2_" filterUnits="userSpaceOnUse" x="-9.03" y="2.09" width="63.54" height="34.66">
				<feColorMatrix  type="matrix" values="1 0 0 0 0  0 1 0 0 0  0 0 1 0 0  0 0 0 1 0"/>
			</filter>
		</defs>
		<mask maskUnits="userSpaceOnUse" x="-9.03" y="2.09" width="63.54" height="34.66" id="d_2_">
			<g filter="url(#Adobe_OpacityMaskFilter_2_)">
				<path id="c_2_" fill-rule="evenodd" clip-rule="evenodd" fill="#FFFFFF" d="M0.02,0.08h56.53v38.66H0.02V0.08z"/>
			</g>
		</mask>
		<path mask="url(#d_2_)" fill-rule="evenodd" clip-rule="evenodd" fill="#FFFFFF" d="M-9.03,36.75h63.54V2.09H-9.03V36.75z"/>
		<defs>
			<filter id="Adobe_OpacityMaskFilter_3_" filterUnits="userSpaceOnUse" x="-6.92" y="4.17" width="59.32" height="30.5">
				<feColorMatrix  type="matrix" values="1 0 0 0 0  0 1 0 0 0  0 0 1 0 0  0 0 0 1 0"/>
			</filter>
		</defs>
		<mask maskUnits="userSpaceOnUse" x="-6.92" y="4.17" width="59.32" height="30.5" id="d_3_">
			<g filter="url(#Adobe_OpacityMaskFilter_3_)">
				<path id="c_3_" fill-rule="evenodd" clip-rule="evenodd" fill="#FFFFFF" d="M0.02,0.08h56.53v38.66H0.02V0.08z"/>
			</g>
		</mask>
		<path mask="url(#d_3_)" fill-rule="evenodd" clip-rule="evenodd" fill="#C6DEF4" d="M-6.92,34.67H52.4V4.17H-6.92V34.67z"/>
		<defs>
			<filter id="Adobe_OpacityMaskFilter_4_" filterUnits="userSpaceOnUse" x="10.86" y="7.69" width="23.75" height="23.44">
				<feColorMatrix  type="matrix" values="1 0 0 0 0  0 1 0 0 0  0 0 1 0 0  0 0 0 1 0"/>
			</filter>
		</defs>
		<mask maskUnits="userSpaceOnUse" x="10.86" y="7.69" width="23.75" height="23.44" id="d_4_">
			<g filter="url(#Adobe_OpacityMaskFilter_4_)">
				<path id="c_4_" fill-rule="evenodd" clip-rule="evenodd" fill="#FFFFFF" d="M0.02,0.08h56.53v38.66H0.02V0.08z"/>
			</g>
		</mask>
		<path mask="url(#d_4_)" fill-rule="evenodd" clip-rule="evenodd" fill="#FFFFFF" d="M10.86,19.42c0-6.48,5.31-11.72,11.88-11.72
			c6.55,0,11.87,5.25,11.87,11.72c0,6.47-5.32,11.72-11.87,11.72C16.18,31.13,10.86,25.88,10.86,19.42"/>
		<defs>
			<filter id="Adobe_OpacityMaskFilter_5_" filterUnits="userSpaceOnUse" x="18.75" y="18.68" width="8.71" height="6.97">
				<feColorMatrix  type="matrix" values="1 0 0 0 0  0 1 0 0 0  0 0 1 0 0  0 0 0 1 0"/>
			</filter>
		</defs>
		<mask maskUnits="userSpaceOnUse" x="18.75" y="18.68" width="8.71" height="6.97" id="d_5_">
			<g filter="url(#Adobe_OpacityMaskFilter_5_)">
				<path id="c_5_" fill-rule="evenodd" clip-rule="evenodd" fill="#FFFFFF" d="M0.02,0.08h56.53v38.66H0.02V0.08z"/>
			</g>
		</mask>
		<path mask="url(#d_5_)" fill-rule="evenodd" clip-rule="evenodd" fill="#C6DEF4" d="M21.54,18.68h2.39c0.94,0,1.83,0.36,2.5,1.01
			c0.66,0.65,1.04,1.54,1.03,2.47c0,0.93-0.36,1.8-1.03,2.46c-0.67,0.65-1.56,1.02-2.5,1.02H19.5c-0.41,0-0.74-0.32-0.75-0.73
			c0-0.41,0.34-0.74,0.75-0.74h4.43c0.54,0,1.05-0.21,1.44-0.59c0.39-0.39,0.6-0.88,0.6-1.42c0-0.54-0.21-1.05-0.6-1.43
			c-0.39-0.38-0.9-0.59-1.44-0.59h-2.39c-0.41,0-0.74-0.32-0.75-0.73C20.8,19.01,21.13,18.68,21.54,18.68
			C21.54,18.68,21.54,18.68,21.54,18.68"/>
		<defs>
			<filter id="Adobe_OpacityMaskFilter_6_" filterUnits="userSpaceOnUse" x="18.01" y="13.17" width="8.71" height="6.98">
				<feColorMatrix  type="matrix" values="1 0 0 0 0  0 1 0 0 0  0 0 1 0 0  0 0 0 1 0"/>
			</filter>
		</defs>
		<mask maskUnits="userSpaceOnUse" x="18.01" y="13.17" width="8.71" height="6.98" id="d_6_">
			<g filter="url(#Adobe_OpacityMaskFilter_6_)">
				<path id="c_6_" fill-rule="evenodd" clip-rule="evenodd" fill="#FFFFFF" d="M0.02,0.08h56.53v38.66H0.02V0.08z"/>
			</g>
		</mask>
		<path mask="url(#d_6_)" fill-rule="evenodd" clip-rule="evenodd" fill="#C6DEF4" d="M21.54,13.17h4.43c0.42,0,0.75,0.33,0.75,0.74
			c0,0.41-0.33,0.74-0.74,0.74c0,0,0,0-0.01,0h-4.43c-0.55,0-1.06,0.21-1.44,0.59c-0.39,0.38-0.6,0.88-0.6,1.42
			c0,0.55,0.21,1.05,0.6,1.43c0.38,0.38,0.9,0.59,1.44,0.59h2.39c0.41,0,0.74,0.32,0.75,0.73c0,0,0,0,0,0
			c0,0.41-0.34,0.74-0.75,0.73h-2.39c-0.94,0-1.83-0.36-2.5-1.02c-0.66-0.65-1.04-1.54-1.03-2.47c0-0.93,0.37-1.81,1.03-2.46
			C19.71,13.53,20.61,13.17,21.54,13.17"/>
		<defs>
			<filter id="Adobe_OpacityMaskFilter_7_" filterUnits="userSpaceOnUse" x="21.99" y="11.6" width="1.49" height="15.59">
				<feColorMatrix  type="matrix" values="1 0 0 0 0  0 1 0 0 0  0 0 1 0 0  0 0 0 1 0"/>
			</filter>
		</defs>
		<mask maskUnits="userSpaceOnUse" x="21.99" y="11.6" width="1.49" height="15.59" id="d_7_">
			<g filter="url(#Adobe_OpacityMaskFilter_7_)">
				<path id="c_7_" fill-rule="evenodd" clip-rule="evenodd" fill="#FFFFFF" d="M0.02,0.08h56.53v38.66H0.02V0.08z"/>
			</g>
		</mask>
		<path mask="url(#d_7_)" fill-rule="evenodd" clip-rule="evenodd" fill="#C6DEF4" d="M22.74,11.6c0.41,0,0.74,0.33,0.74,0.74v14.15
			c-0.02,0.41-0.37,0.73-0.78,0.71c-0.38-0.02-0.69-0.32-0.71-0.71V12.34C21.99,11.93,22.33,11.6,22.74,11.6"/>
		<defs>
			<filter id="Adobe_OpacityMaskFilter_8_" filterUnits="userSpaceOnUse" x="-9.03" y="2.09" width="63.54" height="34.66">
				<feColorMatrix  type="matrix" values="1 0 0 0 0  0 1 0 0 0  0 0 1 0 0  0 0 0 1 0"/>
			</filter>
		</defs>
		<mask maskUnits="userSpaceOnUse" x="-9.03" y="2.09" width="63.54" height="34.66" id="d_8_">
			<g filter="url(#Adobe_OpacityMaskFilter_8_)">
				<path id="c_8_" fill-rule="evenodd" clip-rule="evenodd" fill="#FFFFFF" d="M0.02,0.08h56.53v38.66H0.02V0.08z"/>
			</g>
		</mask>
		<path mask="url(#d_8_)" fill-rule="evenodd" clip-rule="evenodd" fill="#FFFFFF" d="M54.51,11.59v-9.5h-9.63
			C45.73,6.94,49.59,10.75,54.51,11.59 M-9.03,27.23v9.51H0.6C-0.25,31.89-4.11,28.08-9.03,27.23 M-9.03,11.59
			c4.92-0.84,8.77-4.65,9.63-9.5h-9.63V11.59z M44.88,36.75h9.63v-9.51C49.59,28.08,45.73,31.89,44.88,36.75"/>
	</g>
	<path fill-rule="evenodd" clip-rule="evenodd" fill="#F2F2F2" d="M102.87,57.3h51.75V24.42h-51.76L102.87,57.3z"/>
	<path fill-rule="evenodd" clip-rule="evenodd" fill="#C6DEF4" d="M106.97,53.18h43.55V28.53h-43.55L106.97,53.18z"/>
	<path fill-rule="evenodd" clip-rule="evenodd" fill="#FFFFFF" d="M106.95,53.18l21.79-15.2l21.79,15.2H106.95z"/>
	<path fill-rule="evenodd" clip-rule="evenodd" fill="#D9D8D7" d="M106.95,28.53l21.79,17.78l21.79-17.78L106.95,28.53z"/>
	<path fill-rule="evenodd" clip-rule="evenodd" fill="#FFFFFF" d="M106.95,28.53l21.79,15.2l21.79-15.2H106.95z"/>
	<path fill-rule="evenodd" clip-rule="evenodd" fill="#F2F2F2" d="M150.54,65.74l-8.4-8.44h8.4L150.54,65.74z"/>
	<path fill-rule="evenodd" clip-rule="evenodd" fill="#FFFFFF" d="M46.25,93.3H73V76.31H46.25V93.3z M70.89,97.67l-4.34-4.37h4.34
		V97.67z"/>
	<path fill-rule="evenodd" clip-rule="evenodd" fill="#CCCBCA" d="M54.72,84.48c-0.29-0.15-0.74-0.31-1.34-0.45
		c-0.61-0.14-0.99-0.28-1.15-0.41c-0.12-0.09-0.18-0.23-0.18-0.38c0-0.16,0.06-0.29,0.2-0.39c0.21-0.15,0.49-0.22,0.85-0.22
		c0.35,0,0.62,0.07,0.79,0.21c0.18,0.14,0.29,0.37,0.35,0.69l1.25-0.06c-0.02-0.57-0.23-1.03-0.62-1.37
		c-0.39-0.34-0.98-0.51-1.75-0.51c-0.48,0-0.88,0.07-1.22,0.21c-0.31,0.13-0.58,0.35-0.77,0.63c-0.17,0.26-0.27,0.57-0.27,0.89
		c0,0.49,0.19,0.91,0.57,1.25c0.27,0.25,0.74,0.45,1.41,0.62c0.52,0.13,0.86,0.22,1,0.27c0.22,0.07,0.37,0.17,0.45,0.27
		c0.09,0.11,0.13,0.24,0.13,0.38c0,0.23-0.1,0.43-0.31,0.6c-0.2,0.17-0.51,0.26-0.91,0.26c-0.38,0-0.68-0.09-0.91-0.29
		c-0.22-0.19-0.37-0.5-0.44-0.91l-1.22,0.12c0.08,0.7,0.33,1.23,0.75,1.59c0.42,0.36,1.02,0.55,1.8,0.55c0.54,0,0.99-0.08,1.35-0.23
		c0.36-0.15,0.64-0.38,0.84-0.69c0.19-0.3,0.3-0.65,0.29-1c0-0.39-0.08-0.72-0.24-0.99C55.24,84.84,55,84.62,54.72,84.48
		 M59.69,85.94l-1.12-4.25h-1.87v6.23h1.16v-4.9l1.23,4.9h1.2l1.23-4.9v4.9h1.16v-6.23h-1.88L59.69,85.94z M68.39,85.11
		c-0.17-0.27-0.4-0.49-0.68-0.63c-0.29-0.15-0.74-0.31-1.35-0.45c-0.61-0.14-0.99-0.28-1.15-0.41c-0.12-0.09-0.19-0.23-0.19-0.38
		c0-0.16,0.07-0.29,0.2-0.39c0.2-0.15,0.49-0.22,0.85-0.22c0.35,0,0.62,0.07,0.79,0.21c0.18,0.14,0.29,0.37,0.34,0.69l1.25-0.06
		c-0.02-0.57-0.23-1.03-0.62-1.37c-0.39-0.34-0.98-0.51-1.75-0.51c-0.48,0-0.88,0.07-1.22,0.21c-0.32,0.13-0.59,0.35-0.77,0.63
		c-0.18,0.28-0.27,0.57-0.27,0.89c0,0.49,0.19,0.91,0.57,1.25c0.27,0.25,0.74,0.45,1.41,0.62c0.52,0.13,0.85,0.22,1,0.27
		c0.21,0.07,0.36,0.17,0.45,0.27c0.08,0.11,0.13,0.23,0.13,0.38c0,0.23-0.1,0.43-0.31,0.6c-0.2,0.17-0.51,0.26-0.91,0.26
		c-0.38,0-0.68-0.09-0.91-0.29c-0.22-0.19-0.37-0.5-0.45-0.91l-1.21,0.12c0.08,0.7,0.33,1.23,0.75,1.59
		c0.42,0.37,1.02,0.55,1.8,0.55c0.54,0,0.99-0.07,1.35-0.23c0.36-0.15,0.64-0.38,0.84-0.69c0.19-0.3,0.29-0.65,0.29-1
		C68.63,85.71,68.55,85.38,68.39,85.11"/>
	<circle fill-rule="evenodd" clip-rule="evenodd" fill="#F7F7FF" cx="18.5" cy="45.5" r="9.5"/>
	<circle fill-rule="evenodd" clip-rule="evenodd" fill="#F7F7FF" cx="170.5" cy="126.5" r="9.5"/>
</g>
</svg>
