<svg xmlns="http://www.w3.org/2000/svg" xmlns:xlink="http://www.w3.org/1999/xlink" width="210" height="172" viewBox="0 0 210 172">
    <defs>
        <path id="a" d="M0 .39h132.61V133H0z"/>
        <path id="c" d="M0 133h132.61V.39H0z"/>
        <path id="e" d="M.36.149h68.319v34.41H.359z"/>
        <path id="g" d="M.248.033h66.147v32.225H.248z"/>
        <path id="i" d="M.369.453h63.154v34.106H.369z"/>
        <path id="k" d="M.316.146h47.677v32.112H.316z"/>
    </defs>
    <g fill="none" fill-rule="evenodd">
        <path stroke="#DEDEE3" stroke-dasharray="6,8" d="M73 120c33.137 0 60-26.863 60-60S106.137 0 73 0 13 26.863 13 60s26.863 60 60 60z"/>
        <path stroke="#DEDEE3" stroke-dasharray="6,8" d="M150 153c33.137 0 60-26.863 60-60s-26.863-60-60-60-60 26.863-60 60 26.863 60 60 60z"/>
        <g transform="translate(38.5 20)">
            <mask id="b" fill="#fff">
                <use xlink:href="#a"/>
            </mask>
            <path fill="#C6DEF4" d="M66.305 133C29.685 133 0 103.314 0 66.695 0 30.075 29.685.39 66.305.39c36.62 0 66.305 29.685 66.305 66.305 0 36.62-29.685 66.305-66.305 66.305z" mask="url(#b)"/>
            <path fill="#FFF" d="M119.349 100.33c0 .605-.23 1.211-.69 1.665a2.34 2.34 0 0 1-1.666.695H15.617a2.35 2.35 0 0 1-1.667-.695 2.348 2.348 0 0 1-.689-1.664v-7.07h106.088v7.07z"/>
            <path fill="#192E2D" d="M119.349 25.33a2.354 2.354 0 0 0-2.356-2.354H15.617a2.36 2.36 0 0 0-1.667.69 2.366 2.366 0 0 0-.689 1.664v67.93h106.088V25.33z"/>
            <mask id="d" fill="#fff">
                <use xlink:href="#c"/>
            </mask>
            <path fill="#FFF" d="M18.567 87.955h95.478V28.28H18.567z" mask="url(#d)"/>
        </g>
        <g transform="translate(69.5 73)">
            <mask id="f" fill="#fff">
                <use xlink:href="#e"/>
            </mask>
            <path fill="#474F59" d="M68.679 34.558c0 19.001-15.293 34.411-34.165 34.411C15.657 68.97.359 53.56.359 34.558.36 15.548 15.657.148 34.514.148c18.872 0 34.165 15.4 34.165 34.41" mask="url(#f)"/>
        </g>
        <g transform="translate(71.784 75.3)">
            <mask id="h" fill="#fff">
                <use xlink:href="#g"/>
            </mask>
            <path fill="#353F49" d="M44.231.033a31.376 31.376 0 0 1 10.14 23.158c0 17.32-13.939 31.364-31.138 31.364-9.11 0-17.295-3.941-22.985-10.219C5.1 57.383 17.588 66.668 32.23 66.668c18.872 0 34.165-15.41 34.165-34.411 0-14.754-9.213-27.334-22.164-32.224" mask="url(#h)"/>
        </g>
        <g transform="translate(74.524 73)">
            <mask id="j" fill="#fff">
                <use xlink:href="#i"/>
            </mask>
            <path fill="#FFF" d="M12.04 7.645c-.092-.065-.07-.125.056-.19.106.037.094.107-.056.19-.049-.004.066-.023 0 0zm1.994 2.799c.018-.007.336-.04.223.081-.124.068-.193.034-.223-.081.033-.007.001.066 0 0zm11.072 24.363c-.108-.09.076-.065 0 0-.013-.01.026-.024 0 0zM21.099 1.983c.02-.01.036-.01.06-.014-.029.045-.05.053-.06.014.02-.01.004.005 0 0zm18.855 3.933l-.003-.005c.025.002.027.017.025.048a.157.157 0 0 0-.022-.043zm5.284-1.304c.211.056.012.045 0 0 0 0 .008.037 0 0zM21.272 1.916c-.012.059-.055.052-.102.052.018-.052.058-.057.102-.052zm-1.083-.067c.037-.05.1-.038.153-.04-.044.055-.09.064-.153.04zm.3-.066c-.04.008-.083.012-.118.016.034-.028.074-.032.118-.016zm1.525 3.283c.009-.007.031.002.046.005-.046.028-.118.028-.046-.005zM4.284 35.694c-.027.347-.102-.333 0 0 0 .046-.012-.037 0 0zM19.735 4.49c-.062.098-.158.148-.299.196.072-.158.175-.187.299-.196zm.771 53.835c.096.03.143.105.155.202 0 .3-.54-.167-.155-.202.062-.007-.085.007 0 0zM9.006 22.585c-.009.122-.065.177-.173.176-.059-.104.124-.387.173-.176.02.07-.014-.037 0 0zM39.902 5.73c-.04.075-.001.128.05.18-.057-.026-.297-.328-.114-.37.087.034.107.098.064.19-.04.075.03-.04 0 0zM19.4 4.314c-.195.107-.342.183-.552.169.15-.17.32-.16.552-.17zm2.463-1.154c.098-.176.207-.22.54-.216-.162.19-.34.227-.54.216zm34.68 11.781c-.165-.076-.224-.187-.183-.378.14.1.199.207.183.378zm-8.533-1.964c-.267-.04.505-.283.23.074a.477.477 0 0 1-.23-.074c-.04-.006.086.009 0 0zM21.28 1.914c.236-.195.508-.229.798-.203a1.369 1.369 0 0 1-.798.203zm-.146 8.35c.072.015.146-.004.259-.015-.342.414-.73-.163-.648-.186-.057.017.373.198.39.202.071.014-.128-.023 0 0zm.093-8.522c-.252.192-.515.385-.865.35.238-.248.557-.28.865-.35zm.957-.212c-.054-.081-.15-.024-.212-.1.161-.172.378-.116.568-.166-.007.023-.236.447-.356.266-.054-.081.029.057 0 0zm32.99 13.358c-.107-.112-.329-.039-.388-.264.191.1.405.053.587.196-.066.058-.14.126-.2.068-.106-.112.06.058 0 0zm-5.735-2.875l.005.004c-.091-.032-.649-.37-.42-.554.158-.116.393.495.415.55zM21.15 8.835c.32-.007.578.092.857.302-.372.07-.613-.077-.858-.302zM4.03 35.748c-.006.15-.075.206-.22.156-.045-.043-.073-.543.014-.645.066.161.146.322.206.489.03.07-.06-.167 0 0zm7.406-14.232c-.107-.408-.265-.418.013-.773.106.381.106.613-.013.773-.048-.164.12-.16 0 0zM21.703 1.341c-.27.182-.598.063-.882.168.396-.272.573-.251.882-.168-.27.182-.05-.014 0 0zM18.47 29.44c-.023-.007.106-.408.372-.431.306.192-.22.449-.372.43-.026-.006.335.04 0 0zm-.141.028c.007-.028.035-.038.077-.042a1.132 1.132 0 0 0-.077.042zm-1.585-4.866c-.404.997-1.433-.7 0 0-.068.143-.242-.121 0 0zm-5.503.02c.096.007.141.054.162.144-.055.25-.826-.103-.909-.212.266-.153.512-.062.747.067zM34.26.732c-.043.005-.095.01-.14.019.045-.05.097-.057.14-.019-.043.005-.019-.006 0 0zm1.316.312c-.433-.124-.895-.144-1.316-.312.506-.056 1.12.14 1.472.242.12.035-.183.057-.156.07-.433-.124.042.007 0 0zm-13.037.51c.585-.452.725-.194 1.461-.12-.236.217-.799.263-1.461.12.16-.124.662.143 0 0zm27.032 10.6c.198 0 .69.777.61.907-.233.373-.62-.566-.86-.71.084-.06.17-.125.25-.198zM33.753 3.503c-.036-.118.836-.065.984-.093.226-.04 1.964.133 1.351.412-.473.213-1.16.46-1.612.048-.112-.099-.717-.343-.723-.367-.025-.083.035.117 0 0zm7.565 3.677c.582.608-.318 1.074-.73.686-.197-.209-.079-.7-.543-.839.122-.043.249-.078.375-.123-.317-.749.753.123.898.276.128.14-.04-.043 0 0zm-28.92 17.412c-.252-.112.819-.101.96-.16-.215-.325-.018-.508-.432-.633.377-.458 1.617.078 2.008.25-.034.062-.102.007-.141.076.03.027.844.712.3.482-.608-.262-.94.102-1.368.343-.335-.486-.888-.148-1.327-.358-.053-.024.1.048 0 0zm-1.293-.906c-.334.03.217-.264.168-.373-.223-.523-1.775-.638-1.913-1.056a.217.217 0 0 0 .133-.14c-.527-.216-.803.433-1.281.395.992-1.706 3.466.245 4.457 1.029-.521.062-1.043.068-1.564.145-.046.005.284-.043 0 0zM22.96 9.332c.035 0 .054 0 .08.024-.03 0-.16-.006-.08-.024.035 0-.023.002 0 0zm1.942.3c.039-.045.24-.129.113-.01-.037.077-.222.138-.113.01.014-.02-.025.029 0 0zm-.916-1.245c-.097.067-1.302 1.22-1.278 1.33.029.103 1.257.03 1.47.152-.02.137-.182.067-.209.193.164 0 .657-.315.738-.22a.346.346 0 0 1-.046.227c.547.54.496-.632.524-.697-.382-.053.087-.594-.562-.365.038-.014-.696-.22-.658-.176-.056-.058.52-.571.572-.633-.346-.092-.39.062-.551.189-.21.146.046-.042 0 0zm18.2-.505c.153-.021-.196-.512-.282-.615.102.012.193.02.302-.043-.082-.222-1.08-.8-1.146-.761-.379.238-.847-.822-.899-.967.642-.088 1.044.608 1.627.892.495.245 2.281 1.094 2.325 1.639.043.274-1.347.159-1.557.48-.151-.401.353-.398.342-.517-.021-.095-.642-.121-.711-.108-.038.005.215-.036 0 0zM24.204 1.314c-.181-.027-.374-.01-.572-.034.101-.091.677-.112.42-.276.795-.487 2.44-.584 3.346-.473C28.41.658 29.436.34 30.433.498c.407.07.757.075 1.162.101.346.042-.052.405.346.469.24.026.715.568.933.449-.012.377-.184.116-.064.466.03.082.446.318.43.35-.043.054-1.178-.027-1.123-.012-.088-.015.02.176.093.146.226.061.716-.014.967.004-.577.52-1.433.462-2.073.88-.386.257-.97.235-1.395.39 0 .438-.333.973-.624 1.43-.203.313-1.647-.414-1.796-.6-.314-.38-1.032-1.381-.25-1.694.946-.376.008-.068-.278-.273.226-.322.477-.21.838-.156-.184-.26-.415-.321-.688-.189-.087-.276.393-.524-.031-.816-.184-.128-1.18.026-1.209-.15-.067-.44 1.213-.207 1.438-.567-.957-.203-1.977.732-2.906.588-.181-.027.167.027 0 0zM61.56 46.367c.017-.043.04-.088.052-.13.005.056-.03.089-.052.13zm-.563 1.425c.136-.353.25-.718.426-1.06-.112.37-.269.712-.426 1.06zM41.32 66.794c.054.093-4.292 1.328-4.738 1.424a34.47 34.47 0 0 1-5.488.714c-3.514.177-7.178-.147-10.554-1.181.435.046.958.274 1.401.205-.423-.266-.939-.175-1.32-.505 1.413.227 2.755.122 4.04.29-.13-.181-1.308-.465-1.302-.593.165-.013 1.08-.036 1.107-.066.429-.334-.672-.288-.578-.535.035-.06.338.047.446-.097.166-.228 0-.344.058-.46.053-.099 1.75-.397 1.93-.316-.202.12-.43-.019-.342.313-.173-.02-.7-.005-.732.222.015-.052.573.739.597.778.194.309.882.495.933.868.117.621 3.35.558 3.83.507 1.214-.142 2.347-.575 3.533-.783.707-.128 1.415-.328 2.135-.398.332-.036 1.444-.425 1.698-.336.165.583 2.747-.174 3.346-.051.005.008-.102-.021 0 0zm21.445-31.966c-.16.66-.004.865-.392 1.23-.002-.492-.186-1.425.314-1.716.068.158.123.29.078.486-.07.271.045-.195 0 0zm-.427 5.621c-.012.554-.089 2.059-.448 2.487.033-.931.378-1.779.39-2.703.079.088.058.154.058.216 0 .067 0-.062 0 0zm-.536-1.923c-.007-.603-.023-1.316.105-1.901.026 1.022.076 2.058.044 3.088-.163-.214-.15-.93-.15-1.187-.001-.22 0 .21 0 0zm-.369 1.684c-.004-.328.01-.345.338-.557-.066.234-.298.34-.338.557zm-.097 3.616a2.788 2.788 0 0 1-.208.074c-.124 0 .225-.171.243-.183-.02.064-.02.083-.035.11-.052.076.015-.027 0 0zm.647-8.908c-.011-.116-.014-.21.062-.296.056.119.005.198-.062.296zm.2-1.085c-.071-.194.03-.364.085-.589.08.239-.05.403-.085.59zm-1.666-12.28c-.137-.348-1.956-3.033-1.746-3.183.248-.153 4.132 6.786 3.712 7.858-.593-1.581-1.3-3.119-1.966-4.676-.009-.013.133.32 0 0zm2.58 6.836l.003.005c-.668-2.483-1.167-4.93-2.187-7.335a34.597 34.597 0 0 0-4.723-7.964 34.225 34.225 0 0 0-9.787-8.433 32.422 32.422 0 0 0-1.792-.966c-.264-.125-1.196-.373-1.336-.603.008.107.542.38.614.451-.36-.095-1.318-.503-1.334-.565.026-.042.103 0 .091-.073-.533-.349-2.552-1.093-2.957-.543.09-.109 1.392 1.41 1.424 1.678.087.593 1.003 1.224 1.589 1.413.815.274.205-.093.548-.283.22-.112.426.372.635.261-.006-.006 0-.01.004-.017a4.506 4.506 0 0 0-.19-.337c-.055 0 1.48 1.596 1.67 1.245-.179-.428-.45-.919-.892-1.324-.384-.365-.992-.395-1.407-.764-.214-.181-.99-.759-1.072-1.023 1.028.035 2.215 2.23 3.247 1.38a5.108 5.108 0 0 1-.418-.32c.195.058 1.052.334.766.698-.823-.144.692.7.719.793-.15-.013-.251-.134-.39-.145.059.287.87.59.928 1.077-.487.077-.277-.296-.596.102-.101.13-.539.089-.78.108-.563.046-1.197-.92-1.604-1.214.17.533.465.794 1.06 1.172.294.168-.406.241-.394.485.019 0 .189.083.182.128 0 .03-.156-.106-.182-.128.058-.038-.101.948-.115.932.47.544-.617.382-.641.401.09.125.258.188.295.367-.312.018-.572-.028-.877.089.446.125 2.894 1.27 2.358 2.127-.168.283-1.827-.069-2.135-.08-.642-.046-.044.615-.03.692.102.494.483.708.45 1.284-.03.403.38.417.508.756.112.3.05.327.356.37.544.072.558-.013 1.02.347.33.259.453-.242.843-.253.971-.042.144-.24.61-.374.573-.161-.164-1.074-.128-1.243.045-.24-.038-.506.28-.597.498-.133-.127-.646-.164-.786-.097-.405 1.358.35 1.182-.682.834.262 1.698 1.026 2.472 1.463.447.274.904.539 1.242.973.393.516-.572.305-.632.456-.063.167.85.578.995.57.022-.091-.112-.62-.128-.714-.036-.363-.565-.729-.526-1.019.163.02.316.084.445.188-.488-.607-1.28-.664-1.838-1.114-.336-.275-.76-.499-1.089-.783-.001-.001-.591-.762-.18-.619.656.228 1.364.895 2.03 1.244.53.28.657.447 1.05.904.15.18.964 1.131 1.145 1.164-.005-.008.661.595.934.685-.121-.274-.225-.622-.367-.842-.18-.299-.94-.467-.94-.915.169.017.192-.165.56-.154-.192-.005.236-.292.216-.25-.71-.405-1.663-1.597-1.924-2.401.196.006.301.266.517.136-.07-.136-.088-.282-.07-.428.053.06.725.64.59.753a.653.653 0 0 1-.48-.231c.096.337.434.345.567.578.016-.093-.046-.169.033-.273.582.243 1.78 1.182 1.937 1.842-.254.028-.745-.522-.919-.386a.437.437 0 0 0 .025.392.5.5 0 0 0-.214.058c.097.075.149.176.159.295-.095.025-.189.056-.288.086.08.333 1.816 1.995 1.939 1.823.032-.057-.076-.222-.048-.25.091-.107.366.372.507.28.116-.073-.114-.23.013-.29.266-.138 1.3 1.917 1.428 2.154.502.95.17.374-.213.506a.782.782 0 0 0-.103.316c-.605-.144-1.266-.499-1.76-.849-.786-.573.25 1.548-.202 1.282-.266-.154-.426-.38-.75-.407-.48-.046-.615-.558-1.05-.709-.358-.12-1.77-.253-1.589-.9.147-.56-.562-1.024-.796-1.236-.12-.11-1.69.099-1.948.175-.431.137-1.112.28-1.356.685-.414.756-1.369-.24-1.755-.08-.203.08-.006.7-.114.899-.152.3-.537.318-.636.673-.166.642.319 1.176.1 1.766-.183.476-1.08.677-1.097 1.063-.007.209-.048.436-.238.55-.415.234.01.78-.243 1.056-1.394 1.42.444 2.82.13 4.383-.18.884-.282 1.067.095 1.829.091.19.024 1.567.72 1.013.084.803 1.109.963 1.29 1.725.217.905 1.101 1.307 1.782 1.845.276.215.51.497.826.658.565.287.939-.154 1.48-.308.484-.14.989-.09 1.449.13.26.124 2.22-1.274 2.752-1.007.391.196.407.67.588 1.016.256.48.798-.156 1.161.013.64.29.831 2.654.29 3.092-.41.3.521 1.593.649 1.854.365.73.697 2.009.583 2.82-.09.657.084 1.697-.284 2.278-.376.58-.59 1.194-.888 1.854-.773 1.687-.031 3.599-.698 5.351-.403.896-.331 1.854-.549 2.791-.142.605-.867 1.48-.585 2.106.435-.397 1.081-.346 1.577-.591 1.011-.502 1.492-1.675 2.224-2.463.394-.415.64-.937.873-1.45.218-.48.665-.795.875-1.274.511-1.196.982-2.397 1.5-3.595 1.082-2.6 1.26-5.088 1.637-7.863.397-2.951.408-5.743-.139-8.68zM19.734 62.67c-.13-.027-.12-.076.04-.148.107.044.097.097-.04.148-.06 0 .035-.013 0 0zm-1.23-.54c-.127-.074-.127-.12-.005-.14.136.053.136.105.005.14-.057-.008.037.008 0 0zm-.933-9.58c-.18.058.19-.067 0 0-.046.015.025-.01 0 0zm-.111-8.887c-.098-.1.063.055 0 0-.011-.01.023.016 0 0zm-.7 14.266c-.276-.049.143-.214 0 0-.068-.007.005-.007 0 0zm-1.582-28.522c-.171-.025.192.02 0 0-.016 0 .026.007 0 0zM5.52 26.192c-.088.029.24-.06 0 0-.019.008.038-.005 0 0zM1.562 23.33c-.318-.014.243-.014 0 0-.04-.003.031-.003 0 0zM11.363 8.31c.07.163.017.247-.17.277.07-.114.127-.197.17-.277zm.965 1.29c.696-.222.946-.614 1.362-.081.16.196.128.71-.244.589.102.032-1.125-.084-.896-.22-.247.156-.72.266-1.008.136.265-.15.502-.326.786-.423.176-.053-.284.097 0 0zm-.546-1.283c.11-.084.372-.51.247-.673.067.09-.482-.065-.234-.16.106-.03.731-.376.833-.272.186.19-.78 1.204-.975 1.294a.286.286 0 0 1 .129-.189c.157-.117-.052.04 0 0zm.558-1.947c-.045.09-.095.141-.208.14.044-.098.113-.108.208-.14zm.222-.83c.054 0 .862-.508.884-.302.008.06-.974.315-.884.302zm1.087 3.131c-.001.028-.203.402-.315.257-.101-.105.28-.428.315-.257-.013.101-.008-.046 0 0zm-.103-4.06c.06-.04.556-.343.622-.272.156.2-.802.446-.846.45.053-.122.145-.136.224-.178.173-.1-.079.042 0 0zm.855 5.791c.45.212.193.912-.192.364-.015.325-.573.878-.875.943.11-.13.15-.269.112-.427-.098-.076-.282.144-.388.139.046.2.807-1.323.172-.882-.24.18-1.783 1.838-1.871 1.746-.149-.148.68-1.367.738-1.41.531-.443 1.64-.79 2.304-.473zm.37.634c-.03 0-.127-.025 0 0 .007 0-.044-.009 0 0zm.359-.745c-.053.053-.112.05-.159-.002.078-.029.146-.054.159.002.03.05-.013-.056 0 0zm-.065-6.735c.33-.212.679-.37 1.115-.471-.317.265-.742.375-1.127.48l.012-.009zm.202 7.75c1.236.12-.735.494-.948.274.279-.241.605-.317.948-.275.098.012-.343-.042 0 0zm-1.2.743c.007-.006-1.489.602-1.371.23-.04.114.51-.425.397-.376.124-.052 1.124-.116 1.417-.114-.15.158-.298.207-.443.26-.33.13.145-.053 0 0zm4.984-8.56c.109.05.1.1-.03.154-.092-.053-.079-.104.03-.154.038 0-.055.005 0 0zm.171.197a.343.343 0 0 1 .281-.1c.093.132-.575.209-.281.1.037-.078-.037.014 0 0zm3.851-.315c-.103.118-.257.045-.382.104.133-.268.158-.271.382-.104zm-.69.455c-.058.004-.119.004-.216.004.302-.256.249-.004.215-.004-.057.004.045 0 0 0zm-4.243 3.38c-.174.2-.174.2-.412.158.125-.088.29-.055.412-.159zm.35 1.061c-.953.896-.214.012-.488.29.007.013 0 .028-.014.03-.076-.087.482-.313.503-.32-.122.119-.166.033 0 0zm-.29 1.139c-.28-.018.29.012 0 0-.041 0 .036.004 0 0zm.973-2.94c.07-.073.122-.063.159.04-.073.073-.127.063-.159-.04.005-.04-.006.048 0 0zm.988 1.885c.148.04-.227-.034 0 0 .006.003-.047-.007 0 0zm1.79-1.273c.133-.02.244.019.322.115 0 .057-.73.09-.84.282.094-.323.356-.272.518-.397.07.095-.162.125 0 0zm1.775.155c-.192.17-.395.2-.61.263.153-.23.385-.193.61-.263zM21.5 63.328c.14.03.508-.102.61-.132-.25-.208-.8-.23-1.121-.426.029.011-1.027-.633-.804-.1.054.129.254.01.342.073-.121.195-.18.133-.039.217 0-.004-1.17-.636.006-.676-.819-.736.049-.51-.204-.974-.18-.319.687-.622.216-.895-.213-.13-.46-.106-.692-.268-.319-.23-.019-.65.285-.607.03 0 .191-.741.244-.86-.088-.033-.686-.786-.548-.951.186-.187.966.495 1.158-.01.078-.18-.272-.666-.241-.866.354-.035 2.687.056 2.288-1.022-.138-.375-1.123-.936-1.015-1.244.341.052.91.551 1.268.35.302-.152.543.174.856-.174.049-.068.568-.62.424-.73-.162-.004-.247.088-.263.273-.184-.252.138-.428.3-.611.044.054.085.11.118.158A49.491 49.491 0 0 1 26 52.114c.548-.644.1-1.512.643-2.029.502-.474 1.039-.78 1.663-1.033.197-.076.88-.444 1.023-.401 1.143.356 1.003-1.02 1.733-1.64.736-.625.192-3.813.792-4.051.329-.126 1.302-1.337 1.808-1.888.488-.526.552-1.209.357-1.884-.29-1.033-.578-.445-1.316-.892-.59-.358-1.048-1.07-1.78-1.168-.434-.058-.88.073-1.305-.056-.18-.058-.676-.36-.86-.104.034-.042-.39.16-.36.172-.05-.03-.01-.563-.152-.695-.223-.216-.987-.433-1.265-.5-.639-.166-.79.59-.958-.316-.526-.141-1.044-.755-.95-.915.047-.061-.823-1.903-.935-1.728-.01-.617-1.915-1.386-2.394-1.093-.435.317-1.238-.283-1.502-.572-.3-.325-.292-.68-.797-.892-.213-.092-.587-.04-.502-.417.09-.392-.933-.47-1.03-.858.142.029.266-.042.404-.082-.403.14-.885-.15-1.278.175-.572.476-.906-.226-1.53-.107-.796.152-.263-.138-.76-.444.206.129-.926-.52-.665-.496-.23-.028.037.393-.227.485-.412.15-.765.246-.5.748.455.911-.95.481-.29-.141.119-.104.156-1.295.282-1.25-.163-.055-1.446.782-1.589.958-.411-.666-1.112 1.641-1.339 1.66-.117-.57-.652-.797-1.122-.967-.398-.154-.797.804-1.312.278-.925-.94-.522-2.46-.048-3.536.198-.496-1.71-.646-1.942-.445-.464.381.074-.789.072-.754.05-.476.157-.79.36-.78.127-.278.835-1.559.762-1.71-.289-.671-1.489.519-1.6.816-.123.29-.352.453-.461.716-.114.262-.337-.055-.524.048-.518.297-1.26.14-1.147-.616.116-.913-.229-2.714.786-3.341.311-.193.364-1.098.717-1.422.048-.039 1.076-.639.973-.76.151.163.963-.164 1.065.05.077.17.55.354.72.255-.007.023.08-.4.08-.406-.013-.004-.329-.045-.317-.147.04-.143 1-.047 1.034-.042.457.032.792.411 1.134.179.526-.357.204 2.008.414 2.223.114.128.034.413.257.39.3-.029.392-3.067 1.168-3.698a11.882 11.882 0 0 1 1.814-1.222c.198-.102.718-.353.827-.55-.025-.099-.118-.216-.226-.112-.035-.192.277-.074.338-.27.056-.193-.165-.257-.14-.329-.006.02.196-.396.13-.338.01.009.01.03.015.041.311.053-.074-.295-.082-.346.408.211.23-.452.632-.487-.284.122-.227.444-.195.642.085.433.467-.6.42-.562a8.21 8.21 0 0 0 1.393-.767c-.095-.044-.198.028-.313-.052.421-.151.891-.102 1.288-.313-.01-.427.242-.872.722-.957.73-.118 1.578-.564 2.308-.818-.11.256.065.064.26.157-.239-.622-1.53 1.153-.913.788.52-.3 2.272-.577 2.508-1.086-.002-.027-.115-.365-.112-.365-.432 0-.469.54-1.003.535-.963-.011-.381-.608-.582-.881a.418.418 0 0 1-.435-.139c.095-.02 1.293-.3.662-.439-1.024-.22-1.703.924-2.546.895.625-.384 1.481-1.21 2.246-1.31.813-.114 1.938.287 2.653-.22.637-.446 1.074-.12 1.43-.84.11-.196-.461-.447-.614-.48.064-.073.192 0 .24-.119-.956-.43-1.157-.858-1.272-1.976-.488.359-2.121 1.125-1.248-.12-.315-.136-1.306-.97-1.69-.396-.172.26-.448.696-.745.828-.645.297-.07.24-.289.677-.366.721-1.255.625-1.677 1.255-.262.397-.341.678-.754.865-.36.154-.497-.271-.322-.608.128.14.242.162.345.055.032-.15-.19-.077-.257-.142.128-.218.282-.425.462-.614-.063-.032-.974-.18-.941-.424.056-.504-.576-.226-.686-.379.49-.623.49-.908 1.454-1.4.328-.162 2.173-1.116 2.516-.875-.045.213-.268.167-.392.278.261.066 1.035.153 1.295-.035-.052-.045-.364-.563-.21-.685-.02.024.533.01.575-.004.296-.072.625-.11.792-.41.148-.27 1.118-.616 1.352-.484 1.274.728-1.727 1.498-1.758 1.418.058.211.87-.147 1.076.412.046.138.967.436 1.06.306.054-.063-.264-.404-.275-.485.967.469.91.228.752-.426-.155-.622.562.04.605.058.165.083.813-.291.909-.43-.23-.182-.644-.178-.847-.4-.195-.192.51-.24.264-.442-.292-.241-.76-.185-.592-.653a.59.59 0 0 0-.482.06c.045.086.143.023.18.066-.162.1-.343.116-.52.112.05-.081.215-.081.22-.24-.5-.066-.763.24-1.2.373.125-.179.334-.24.482-.37-.473.06-.93.237-1.301.55.048.058.107.11.143.182-.365.323-.85.423-1.277.62.071-.29.38-.22.48-.436-.152.002-.31.037-.449.107.185-.026.721-.567.843-.702-.776-.095-1.101.923-1.839.776.157-.179.47-.084.572-.365-.273.028-1.303.737-1.467.365-.014-.024 1.883-.776 2.078-1.056-.128-.012-.275.12-.392-.03.095-.104.248-.112.356-.226-.62-.008-2.463.747-2.329 1.181-.23.196-.493.25-.783.128.113-.179.519-.183.19-.445a31.232 31.232 0 0 0-5.626 2.79c-2.04 1.273-3.732 2.776-5.42 4.481-.893.918-4.308 4.927-4.294 5.768.011.618-.354 1.166-.585 1.72-.185.456-.209 1.092-.428 1.513-.501.889-.271 1.923-.5 2.946.291-.213.866-4.897 1.368-4.723.096.035-.312 1.945-.415 2.184-.424.983.133 2.183-.144 3.208-.029.099-.17.623-.173.722-.468.369.121.91.119 1.31 0 .238 1.201 1.295 1.43 1.432.502.303.606-.233 1.062-.137.412.088.53.841.753 1.161.293.443 1.412.396 1.604.605.13.157.022 1.02.531 1.141-.003-.06-.016-.365.057-.407.156-.096.483.476.375.584-.157.037-.308-.024-.43-.177 0 .079-.083 1.205.247.984.005-.066.026-.136.035-.207.422.187.39.819.694.91.42.114.734.644 1.046.792.28.145.203-.989.74-1.045.432-.04.67 1.092.82 1.365.23.396-.301 1.354-.01 1.663.299.317-.74 1.07-.792 1.391-.033.246-.56.473-.539.567.034.264-.118.626-.209.876-.269.704-.138.771.322 1.097.01.013-.848 1.722-.357 2.162.782.641 1.808 2.23 2.053 3.228.505 1.372 1.285 2.214 2.58 2.894 1.059.56 1.804 1.508 1.804 2.79.042.755-.069 1.697.248 2.406.22.491-.199 1.298.118 1.75.204.277-.068.428.056.692.122.28.41.738.406 1.059-.011.542-.002 1.182.036 1.718.009.179-.166.49-.072.606.124.15.842 1.938.842 2.458-.004.127.557-.035.054-.541.595-.34.474 1.075.517 1.085-.537-.183-.187-.034-.15.657.03.407-.107.21.228.288.527.12 0 .479.2.764.392.578 1.006 1.112 1.421 1.555.683.723 1.85.612 2.656.782.115.021-.154-.032 0 0z" mask="url(#j)"/>
        </g>
        <g transform="translate(90.054 75.3)">
            <mask id="l" fill="#fff">
                <use xlink:href="#k"/>
            </mask>
            <path fill="#E6E5E5" d="M45.893 44.43c-.176.343-.29.708-.426 1.06.157-.347.314-.688.426-1.06zm.19-.493c-.013.041-.036.086-.052.13.02-.042.056-.074.052-.13zm-20.329 20.55c-.65-.088-3.146.63-3.31.057-.253-.089-1.365.3-1.697.336-.72.07-1.428.27-2.134.398-1.187.208-2.32.64-3.533.783-.481.051-3.714.115-3.83-.507-.052-.373-.74-.56-.934-.867-.024-.04-.582-.831-.597-.779.032-.227.559-.242.732-.221-.087-.333.14-.194.343-.314-.181-.08-1.878.217-1.93.316-.059.116.107.233-.059.46-.108.144-.411.036-.446.098-.094.246 1.007.2.579.534-.029.03-.943.053-1.108.067-.006.127 1.172.41 1.302.593-1.285-.169-2.627-.063-4.04-.291.381.33.898.24 1.32.506-.443.068-.966-.16-1.401-.206 3.377 1.034 7.04 1.358 10.554 1.182a34.517 34.517 0 0 0 5.488-.715c.447-.095 4.792-1.33 4.739-1.424a.09.09 0 0 1-.038-.006zM5.13 56.227c-.012-.097-.059-.172-.154-.201-.386.034.154.501.154.202zm42.106-23.7c.046-.195-.01-.328-.078-.485-.5.29-.315 1.224-.314 1.715.382-.359.236-.564.384-1.204.015-.056.03-.126.008-.026zm-.486 5.405c-.01.924-.356 1.772-.39 2.703.36-.428.437-1.933.45-2.486v-.006c0-.06.017-.125-.06-.21zm-.477-1.707c0 .257-.013.973.15 1.187.03-1.03-.019-2.066-.045-3.088-.128.585-.112 1.298-.105 1.9-.001-.22 0 .211 0 0zm-.031 1.128c-.328.211-.342.228-.338.556.04-.217.273-.323.338-.556zm-.435 4.173c.015-.027.015-.046.035-.11-.017.013-.367.183-.243.183.07-.021.141-.047.208-.073-.052.077.015-.027 0 0zm.647-8.909c.067-.098.119-.177.063-.296-.076.086-.074.18-.063.296zm.2-1.084c.035-.187.164-.351.086-.59-.056.226-.157.395-.086.59zm1.054 3.236c-.378 2.775-.556 5.264-1.638 7.863-.518 1.199-.988 2.4-1.5 3.596-.21.478-.656.792-.875 1.274-.233.513-.478 1.034-.872 1.449-.733.788-1.214 1.961-2.225 2.463-.496.245-1.142.195-1.577.591-.282-.626.443-1.501.585-2.105.218-.937.146-1.896.55-2.792.666-1.752-.076-3.664.698-5.351.296-.66.511-1.273.887-1.854.369-.58.195-1.62.284-2.277.114-.812-.218-2.09-.583-2.82-.127-.262-1.059-1.556-.65-1.855.543-.438.351-2.802-.288-3.091-.363-.17-.905.467-1.161-.014-.182-.345-.197-.82-.589-1.016-.533-.267-2.491 1.13-2.752 1.008a1.854 1.854 0 0 0-.573-.17c.441-2.094.672-4.258.672-6.477 0-3.994-.751-7.808-2.099-11.32.556-.087 1.422-.175 1.515-.095.234.211.943.675.796 1.235-.182.648 1.231.78 1.59.9.434.151.57.663 1.049.71.324.027.484.252.75.407.453.265-.584-1.856.202-1.282.494.35 1.155.704 1.76.848a.796.796 0 0 1 .103-.316c.384-.131.716.444.213-.506-.127-.237-1.161-2.29-1.428-2.154-.127.06.103.217-.013.291-.14.092-.416-.387-.507-.281-.028.028.08.193.048.25-.123.172-1.859-1.49-1.94-1.823.1-.03.194-.06.289-.086a.403.403 0 0 0-.159-.294.497.497 0 0 1 .214-.058.438.438 0 0 1-.025-.393c.174-.136.666.414.92.387-.158-.66-1.355-1.6-1.938-1.842-.079.104-.017.18-.033.272-.133-.232-.471-.24-.568-.578a.654.654 0 0 0 .48.232c.136-.114-.536-.694-.588-.754a.724.724 0 0 0 .07.428c-.216.13-.322-.13-.518-.136.262.804 1.213 1.997 1.925 2.402.02-.042-.41.244-.217.249-.368-.011-.39.171-.56.155 0 .447.76.616.94.914.142.22.246.569.367.842-.272-.09-.94-.693-.933-.685-.182-.032-.996-.984-1.145-1.163-.394-.457-.52-.625-1.05-.905-.667-.349-1.375-1.016-2.03-1.243-.412-.144.178.617.18.618.328.284.752.508 1.089.783.556.45 1.349.508 1.837 1.114a.879.879 0 0 0-.445-.188c-.04.29.49.657.526 1.02.016.094.15.622.128.712-.144.01-1.058-.402-.995-.568.06-.152 1.025.06.632-.457-.338-.434-.795-.7-1.241-.973-.775-.437-1.638-1.2-2.473-1.463.048.272-.02.42-.146.493a30.86 30.86 0 0 0-2.636-4.29c.248-.007.6.01.688-.104.32-.398.11-.025.597-.102-.058-.486-.87-.79-.93-1.077.14.011.24.132.39.146-.026-.094-1.54-.937-.718-.794.287-.364-.57-.64-.766-.698.133.115.278.222.418.32-.818.675-1.728-.555-2.58-1.117A23.25 23.25 0 0 0 26.072.146c.45.148.85.332 1.045.459.012.074-.065.031-.091.074.016.061.974.47 1.334.564-.072-.07-.605-.344-.613-.451.139.23 1.071.478 1.335.604.613.304 1.208.627 1.792.965a34.223 34.223 0 0 1 9.787 8.434 34.615 34.615 0 0 1 4.723 7.963c.448 1.07.803 2.144 1.108 3.23-.976-2.407-3.074-6.029-3.25-5.919-.21.15 1.609 2.835 1.746 3.183-.009-.014.134.32 0 0 .667 1.557 1.373 3.094 1.966 4.675a.314.314 0 0 0 .024-.116c.197.755.386 1.52.593 2.282l-.003-.004c.547 2.938.536 5.729.14 8.68zm-7.864-22.25c-.182-.142-.395-.095-.587-.196.06.226.281.153.388.264-.075-.081-.02-.023.006 0 .058.054.13-.01.193-.068zm.986-.257c-.041.191.017.302.182.379.016-.171-.043-.279-.182-.379zm6.398 20.291c.005-.007.005-.014.008-.026a.57.57 0 0 1-.008.026zm-.736-10.565c.17.608.335 1.215.486 1.823.042-.346-.16-1.016-.486-1.823zM29.708 2.311c.012.045.211.056 0 0zm-1.543-.028a31.75 31.75 0 0 1 1.448 1.755c.107.047.195.052.227-.015-.179-.428-.45-.92-.892-1.324-.213-.206-.5-.306-.783-.416zM4.243 60.22c-.15.07-.165.117-.052.145-.008 0-.01.003.013.003.138-.051.148-.104.04-.148zm-1.274-.533c-.122.02-.122.068.006.14-.058-.007.037.01 0 0 .13-.033.13-.086-.006-.14zm-1.755-4.063c-.015 0-.022 0 .017.003.14-.21-.245-.059-.017-.003zm4.755 5.403c-.806-.17-1.973-.059-2.656-.782-.415-.443-1.029-.976-1.422-1.555-.199-.285.328-.644-.199-.764-.334-.078-.199.12-.228-.288-.037-.691-.387-.84.15-.657-.043-.01.078-1.425-.517-1.085.503.506-.058.668-.053.541 0-.426-.48-1.702-.728-2.234 1.521.232 3.07.352 4.647.352.107 0 .196-.005.3-.007l-.082.004c-.03.2.319.685.241.866-.192.505-.972-.177-1.158.01-.138.165.46.919.548.951-.053.12-.213.86-.243.86-.305-.042-.605.377-.286.607.233.162.479.139.693.269.47.272-.397.575-.217.895.253.463-.614.237.204.973-1.176.04-.006.673-.006.676-.14-.084-.082-.021.039-.216-.087-.064-.288.055-.342-.075-.223-.532.833.113.804.1.32.197.871.22 1.121.427-.102.03-.46.158-.601.132-.04-.009-.098-.021-.009 0zM33.494 9.162c-.228.184.33.523.42.554l-.003-.004c-.023-.055-.257-.665-.417-.55zm.298.89c.084-.06.17-.126.25-.198.198 0 .69.778.61.907-.233.374-.62-.566-.86-.71z" mask="url(#l)"/>
        </g>
        <path fill="#E6E5E5" d="M119.542 136.834H90.07l1.604-14.144h26.267z"/>
        <path fill="#FFF" d="M125.434 138.484H84.176v-.706c0-.244.093-.483.276-.668a.946.946 0 0 1 .669-.276h39.37a.939.939 0 0 1 .943.944v.706z"/>
        <path fill="#D9D8D7" d="M119.542 136.834l-1.602-14.144H91.673l13.702 14.144z"/>
        <path fill="#FFF" d="M80.537 72.497c-8.504 0-15.389-6.89-15.389-15.384 0-8.497 6.885-15.4 15.39-15.4 8.503 0 15.395 6.903 15.395 15.4 0 8.494-6.892 15.384-15.396 15.384z"/>
        <path fill="#F49611" d="M80.81 69.623c-6.8 0-12.31-5.505-12.31-12.309C68.5 50.51 74.01 45 80.81 45c6.808 0 12.307 5.509 12.307 12.314a12.297 12.297 0 0 1-12.308 12.309z"/>
        <text fill="#FFF" font-family="Roboto-Medium, Roboto" font-size="19" font-weight="400" transform="translate(51.5 41)">
            <tspan x="23" y="22">€</tspan>
        </text>
        <path fill="#FFF" d="M60.73 94.46c-4.822 0-8.73-3.906-8.73-8.722C52 80.913 55.908 77 60.73 77c4.824 0 8.73 3.913 8.73 8.738 0 4.816-3.906 8.723-8.73 8.723z"/>
        <path fill="#F49611" d="M60.73 92.717a6.984 6.984 0 1 1 0-13.965 6.984 6.984 0 0 1 0 13.965z"/>
        <path fill="#FFF" d="M129.257 68.459c0 6.006-4.87 10.876-10.882 10.876-6.013 0-10.883-4.87-10.883-10.876 0-6.01 4.87-10.889 10.883-10.889 6.013 0 10.882 4.88 10.882 10.889"/>
        <path fill="#F49611" d="M127.079 68.459a8.695 8.695 0 0 1-8.704 8.701 8.696 8.696 0 0 1-8.705-8.701 8.699 8.699 0 0 1 8.705-8.706 8.697 8.697 0 0 1 8.704 8.706"/>
        <circle cx="105.5" cy="24.5" r="10.5" fill="#FFF" stroke="#979797"/>
        <circle cx="163" cy="34" r="13" fill="#F7F7FF"/>
        <circle cx="9.5" cy="59.5" r="9.5" fill="#F7F7FF"/>
        <text fill="#FFF" font-family="Roboto-Medium, Roboto" font-size="10" font-weight="400">
            <tspan x="57" y="90">€</tspan>
        </text>
        <text fill="#FFF" font-family="Roboto-Medium, Roboto" font-size="13" font-weight="400">
            <tspan x="114" y="73">€</tspan>
        </text>
    </g>
</svg>
