<svg xmlns="http://www.w3.org/2000/svg" xmlns:xlink="http://www.w3.org/1999/xlink" width="210" height="172" viewBox="0 0 210 172">
    <defs>
        <path id="a" d="M0 .433h132.567V133H0z"/>
        <path id="c" d="M0 133h132.567V.433H0z"/>
    </defs>
    <g fill="none" fill-rule="evenodd">
        <path stroke="#DEDEE3" stroke-dasharray="6,8" d="M63 159c33.137 0 60-26.863 60-60S96.137 39 63 39 3 65.863 3 99s26.863 60 60 60z"/>
        <path stroke="#DEDEE3" stroke-dasharray="6,8" d="M138 120c33.137 0 60-26.863 60-60S171.137 0 138 0 78 26.863 78 60s26.863 60 60 60z"/>
        <g transform="translate(39 20)">
            <mask id="b" fill="#fff">
                <use xlink:href="#a"/>
            </mask>
            <path fill="#FFE5AC" d="M66.283 133C29.828 133 0 103.172 0 66.717 0 30.26 29.828.433 66.283.433c36.457 0 66.284 29.827 66.284 66.284 0 36.455-29.827 66.283-66.284 66.283" mask="url(#b)"/>
        </g>
        <g transform="translate(39 20)">
            <path fill="#192E2D" d="M42.938 114.3a2.88 2.88 0 0 1-2.88-2.88V22.77a2.88 2.88 0 0 1 2.88-2.882h46.086c1.591 0 2.88 1.292 2.88 2.882v88.648c0 1.59-1.289 2.881-2.88 2.881H42.938z"/>
            <mask id="d" fill="#fff">
                <use xlink:href="#c"/>
            </mask>
            <path fill="#E5E5E5" d="M43.667 100.957h44.6V32.475h-44.6z" mask="url(#d)"/>
            <path fill="#92ADBF" d="M63.533 109.878h4.895v-4.894h-4.895zM64.794 27.662h2.375v-2.374h-2.375z" mask="url(#d)"/>
            <path fill="#45525B" d="M84.738 86.76h-1.284v-.856h.428v-.428h.856zM46.045 86.904h1.702v-1h-1.702v1zm3.402 0h1.7v-1h-1.7v1zm3.4 0h1.7v-1h-1.7v1zm3.401 0h1.7v-1h-1.7v1zm3.401 0h1.7v-1h-1.7v1zm3.401 0h1.7v-1h-1.7v1zm3.4 0h1.7v-1h-1.7v1zm3.401 0h1.7v-1h-1.7v1zm3.401 0h1.7v-1h-1.7v1zm3.4 0h1.701v-1h-1.7v1zm3.4 0h1.702v-1h-1.701v1zM44.346 86.76H43.06v-1.284h.856v.428h.429zM43.061 84.233h.856v-1.244h-.856zM43.917 81.746h-.856v-1.285h1.284v.857h-.428zM46.045 81.461h1.702v-1h-1.702v1zm3.401 0h1.701v-1h-1.7v1zm3.401 0h1.7v-1h-1.7v1zm3.401 0h1.7v-1h-1.7v1zm3.401 0h1.7v-1h-1.7v1zm3.401 0h1.7v-1h-1.7v1zm3.4 0h1.7v-1h-1.7v1zm3.4 0h1.701v-1h-1.7v1zm3.402 0h1.7v-1h-1.7v1zm3.4 0h1.7v-1h-1.7v1zm3.4 0h1.702v-1h-1.701v1zM84.738 81.746h-.856v-.428h-.428v-.857h1.284zM83.882 84.233h.856v-1.244h-.856z" mask="url(#d)"/>
            <path fill="#45525B" d="M23.644 86.75h48.06v-6.407h-48.06z" mask="url(#d)"/>
            <path fill="#FFF" d="M26.813 85.732h.778v-4.184h-.778z" mask="url(#d)"/>
            <path fill="#FFF" d="M25.998 85.394l-.55-.55 2.959-2.957.55.548z" mask="url(#d)"/>
            <path fill="#FFF" d="M25.448 82.435l.55-.548 2.959 2.957-.55.55z" mask="url(#d)"/>
            <path fill="#FFF" d="M25.11 84.029h4.184v-.777H25.11zM33.362 85.732h.777v-4.184h-.777z" mask="url(#d)"/>
            <path fill="#FFF" d="M32.546 85.394l-.55-.55 2.96-2.957.548.548z" mask="url(#d)"/>
            <path fill="#FFF" d="M31.996 82.435l.55-.548 2.958 2.957-.549.55z" mask="url(#d)"/>
            <path fill="#FFF" d="M31.658 84.029h4.184v-.777h-4.184zM39.91 85.732h.777v-4.184h-.777z" mask="url(#d)"/>
            <path fill="#FFF" d="M39.094 85.394l-.55-.55 2.958-2.957.55.548z" mask="url(#d)"/>
            <path fill="#FFF" d="M38.544 82.435l.55-.548 2.958 2.957-.55.55z" mask="url(#d)"/>
            <path fill="#FFF" d="M38.206 84.029h4.184v-.777h-4.184zM46.458 85.732h.776v-4.184h-.776z" mask="url(#d)"/>
            <path fill="#FFF" d="M45.642 85.394l-.55-.55 2.96-2.957.549.548z" mask="url(#d)"/>
            <path fill="#FFF" d="M45.092 82.435l.55-.548 2.959 2.957-.55.55z" mask="url(#d)"/>
            <path fill="#FFF" d="M44.755 84.029h4.183v-.777h-4.183z" mask="url(#d)"/>
            <path fill="#45525B" d="M91.107 66.841h-1.284v-.857h.428v-.427h.856zM52.415 66.984h1.7v-1h-1.7v1zm3.4 0h1.7v-1h-1.7v1zm3.4 0h1.701v-1h-1.7v1zm3.402 0h1.7v-1h-1.7v1zm3.4 0h1.701v-1h-1.7v1zm3.402 0h1.7v-1h-1.7v1zm3.4 0h1.7v-1h-1.7v1zm3.401 0h1.7v-1h-1.7v1zm3.4 0h1.7v-1h-1.7v1zm3.401 0h1.7v-1h-1.7v1zm3.401 0h1.7v-1h-1.7v1zM50.714 66.841H49.43v-1.284h.858v.427h.427zM49.43 64.313h.856V63.07h-.856zM50.286 61.827h-.856v-1.285h1.284v.857h-.428zM52.415 61.542h1.7v-1h-1.7v1zm3.4 0h1.7v-1h-1.7v1zm3.4 0h1.701v-1h-1.7v1zm3.402 0h1.7v-1h-1.7v1zm3.4 0h1.701v-1h-1.7v1zm3.401 0h1.7v-1h-1.7v1zm3.401 0h1.7v-1h-1.7v1zm3.401 0h1.7v-1h-1.7v1zm3.4 0h1.7v-1h-1.7v1zm3.4 0h1.701v-1h-1.7v1zm3.402 0h1.7v-1h-1.7v1zM91.107 61.827h-.856V61.4h-.428v-.857h1.284zM90.25 64.313h.857V63.07h-.856z" mask="url(#d)"/>
            <path fill="#45525B" d="M62.537 66.895h48.062v-6.407H62.537z" mask="url(#d)"/>
            <path fill="#FFF" d="M64.05 65.783h2.743V61.81H64.05zM68.892 65.783h2.742V61.81h-2.742zM73.733 65.783h2.743V61.81h-2.743zM78.574 65.783h2.742V61.81h-2.742zM83.415 65.783h2.742V61.81h-2.742zM88.256 65.783H91V61.81h-2.743z" mask="url(#d)"/>
            <path fill="#45525B" d="M84.986 94.178c0 1.85-1.5 3.35-3.351 3.35h-5.369a3.351 3.351 0 1 1 0-6.703h5.369c1.85 0 3.35 1.502 3.35 3.353" mask="url(#d)"/>
            <path fill="#C4D2DE" d="M84.411 94.082a2.825 2.825 0 1 1-5.65 0 2.825 2.825 0 0 1 5.65 0" mask="url(#d)"/>
            <path fill="#45525B" d="M43.106 36.866h1.285v.856h-.429v.428h-.856zM80.098 37.866h1.7v-1h-1.7v1zm-3.4 0h1.7v-1h-1.7v1zm-3.402 0h1.7v-1h-1.7v1zm-3.4 0h1.7v-1h-1.7v1zm-3.401 0h1.7v-1h-1.7v1zm-3.4 0h1.7v-1h-1.7v1zm-3.401 0h1.7v-1h-1.7v1zm-3.401 0h1.7v-1h-1.7v1zm-3.4 0h1.7v-1h-1.7v1zm-3.402 0h1.7v-1h-1.7v1zm-3.4 0h1.7v-1h-1.7v1zM83.5 36.866h1.283v1.284h-.857v-.428H83.5zM83.927 40.637h.856v-1.243h-.856zM83.926 41.88h.857v1.284H83.5v-.856h.427zM80.098 43.308h1.7v-1h-1.7v1zm-3.4 0h1.7v-1h-1.7v1zm-3.402 0h1.701v-1h-1.7v1zm-3.4 0h1.7v-1h-1.7v1zm-3.401 0h1.7v-1h-1.7v1zm-3.4 0h1.7v-1h-1.7v1zm-3.401 0h1.7v-1h-1.7v1zm-3.401 0h1.7v-1h-1.7v1zm-3.4 0h1.7v-1h-1.7v1zm-3.401 0h1.7v-1h-1.7v1zm-3.401 0h1.7v-1h-1.7v1zM43.106 41.88h.856v.428h.429v.856h-1.285zM43.106 40.637h.856v-1.243h-.856z" mask="url(#d)"/>
            <path fill="#45525B" d="M23.567 43.172h48.06v-6.408h-48.06z" mask="url(#d)"/>
            <path fill="#FFF" d="M66.839 39.512a1.439 1.439 0 0 0 2.875 0 1.44 1.44 0 0 0-1.437-1.438 1.44 1.44 0 0 0-1.438 1.438m-.385 0c0-1.005.819-1.822 1.823-1.822a1.824 1.824 0 0 1 0 3.646 1.826 1.826 0 0 1-1.823-1.824" mask="url(#d)"/>
            <path fill="#FFF" d="M66.06 42.307l1.414-1.413-.273-.272-1.414 1.413z" mask="url(#d)"/>
            <path fill="#FFF5A9" d="M67.99 96.658c0 .708-.58 1.288-1.288 1.288H48.257c-.708 0-1.288-.58-1.288-1.288V91.32c0-.709.58-1.289 1.288-1.289h18.445c.708 0 1.288.58 1.288 1.289v5.337z" mask="url(#d)"/>
            <path fill="#FFF" d="M49.178 45.506v11.97H64.392v-11.97z" mask="url(#d)"/>
            <path fill="#FFF" d="M49.178 45.506v11.97H64.392v-11.97z" mask="url(#d)"/>
            <path fill="#45525B" d="M60.203 52.348l-1.395 1.673-3.522-4.08-6.108 7.502h15.213z" mask="url(#d)"/>
            <path fill="#576672" d="M55.357 57.423l-.022-7.462-6.073 7.462zM60.226 55.696v-3.343l-1.387 1.66z" mask="url(#d)"/>
            <path fill="#E6FFFF" d="M60.978 49.498a1.955 1.955 0 1 1-3.91 0 1.955 1.955 0 0 1 3.91 0" mask="url(#d)"/>
            <path fill="#FFF" d="M85.2 76.12c0 .709-.579 1.289-1.288 1.289h-5.555c-.708 0-1.287-.58-1.287-1.289v-5.337c0-.708.58-1.288 1.287-1.288h5.555c.71 0 1.288.58 1.288 1.288v5.337z" mask="url(#d)"/>
            <path fill="#45525B" d="M83.343 72.844h-1.497v-1.497H80.54v1.497h-1.497v1.306h1.497v1.497h1.306V74.15h1.497z" mask="url(#d)"/>
            <path fill="#FFF" d="M52.238 76.12c0 .709-.58 1.289-1.288 1.289H25.072c-.709 0-1.288-.58-1.288-1.289v-5.337c0-.708.58-1.288 1.288-1.288H50.95c.708 0 1.288.58 1.288 1.288v5.337z" mask="url(#d)"/>
            <path fill="#45525B" d="M56.076 76.12c0 .709-.58 1.289-1.289 1.289h-5.555c-.708 0-1.288-.58-1.288-1.289v-5.337c0-.708.58-1.288 1.288-1.288h5.555c.71 0 1.289.58 1.289 1.288v5.337z" mask="url(#d)"/>
            <path fill="#FFF" d="M52.094 75.19l-1.959-2.903h3.917z" mask="url(#d)"/>
        </g>
        <circle cx="105.5" cy="24.5" r="10.5" fill="#FFF" stroke="#979797"/>
        <circle cx="13" cy="132" r="13" fill="#F7F7FF"/>
        <circle cx="44.5" cy="43.5" r="9.5" fill="#F7F7FF"/>
        <circle cx="97.5" cy="151.5" r="9.5" fill="#F7F7FF"/>
    </g>
</svg>
